<?xml version="1.0" encoding="UTF-8" standalone="no"?>
<!-- Created with Inkscape (http://www.inkscape.org/) -->

<svg
   xmlns:dc="http://purl.org/dc/elements/1.1/"
   xmlns:cc="http://creativecommons.org/ns#"
   xmlns:rdf="http://www.w3.org/1999/02/22-rdf-syntax-ns#"
   xmlns:svg="http://www.w3.org/2000/svg"
   xmlns="http://www.w3.org/2000/svg"
   xmlns:sodipodi="http://sodipodi.sourceforge.net/DTD/sodipodi-0.dtd"
   xmlns:inkscape="http://www.inkscape.org/namespaces/inkscape"
   width="33.43"
   height="33.43"
   id="svg2"
   version="1.1"
   inkscape:version="0.48.4 r9939"
   sodipodi:docname="indx-staged.svg">
  <defs
     id="defs4" />
  <sodipodi:namedview
     id="base"
     pagecolor="#ffffff"
     bordercolor="#666666"
     borderopacity="1.0"
     inkscape:pageopacity="0.0"
     inkscape:pageshadow="2"
     inkscape:zoom="3.959798"
     inkscape:cx="1.5127311"
     inkscape:cy="12.523397"
     inkscape:document-units="px"
     inkscape:current-layer="layer1"
     showgrid="false"
     fit-margin-top="3"
     fit-margin-left="0"
     fit-margin-right="0"
     fit-margin-bottom="3"
     inkscape:window-width="484"
     inkscape:window-height="417"
     inkscape:window-x="415"
     inkscape:window-y="324"
     inkscape:window-maximized="0" />
  <metadata
     id="metadata7">
    <rdf:RDF>
      <cc:Work
         rdf:about="">
        <dc:format>image/svg+xml</dc:format>
        <dc:type
           rdf:resource="http://purl.org/dc/dcmitype/StillImage" />
        <dc:title></dc:title>
      </cc:Work>
    </rdf:RDF>
  </metadata>
  <g
     inkscape:label="Layer 1"
     inkscape:groupmode="layer"
     id="layer1"
     transform="translate(-371.856,-521.36097)">
    <g
       id="g2987"
       transform="translate(36.571286,579.21983)">
      <path
         id="path2989"
         d="m 5.143,26.286 q 0,-0.714 -0.5,-1.214 -0.5,-0.5 -1.214,-0.5 -0.714,0 -1.214,0.5 -0.5,0.5 -0.5,1.214 0,0.714 0.5,1.214 0.5,0.5 1.214,0.5 0.714,0 1.214,-0.5 0.5,-0.5 0.5,-1.214 z m 0,-20.572 Q 5.143,5 4.643,4.5 4.143,4 3.429,4 2.715,4 2.215,4.5 q -0.5,0.5 -0.5,1.214 0,0.714 0.5,1.214 0.5,0.5 1.214,0.5 0.714,0 1.214,-0.5 0.5,-0.5 0.5,-1.214 z M 16.571,8 q 0,-0.714 -0.5,-1.214 -0.5,-0.5 -1.214,-0.5 -0.714,0 -1.214,0.5 -0.5,0.5 -0.5,1.214 0,0.714 0.5,1.214 0.5,0.5 1.214,0.5 0.714,0 1.214,-0.5 0.5,-0.5 0.5,-1.214 z m 1.715,0 q 0,0.929 -0.464,1.723 -0.464,0.794 -1.25,1.241 -0.036,5.125 -4.036,7.393 -1.214,0.679 -3.625,1.446 -2.286,0.714 -3.027,1.268 -0.741,0.554 -0.741,1.786 v 0.464 q 0.786,0.446 1.25,1.241 0.464,0.795 0.464,1.723 0,1.429 -1,2.429 -1,1 -2.429,1 -1.429,0 -2.429,-1 -1,-1 -1,-2.429 0,-0.929 0.464,-1.723 0.464,-0.794 1.25,-1.241 V 8.678 Q 0.927,8.232 0.463,7.437 -0.001,6.642 -0.001,5.714 q 0,-1.429 1,-2.429 1,-1 2.429,-1 1.429,0 2.429,1 1,1 1,2.429 0,0.929 -0.464,1.723 -0.464,0.794 -1.25,1.241 v 8.875 q 0.964,-0.464 2.75,-1.018 0.982,-0.304 1.562,-0.527 0.58,-0.223 1.259,-0.554 0.679,-0.331 1.054,-0.705 0.375,-0.374 0.723,-0.911 0.348,-0.537 0.5,-1.241 0.152,-0.704 0.152,-1.634 -0.786,-0.446 -1.25,-1.241 -0.464,-0.795 -0.464,-1.723 0,-1.429 1,-2.429 1,-1 2.429,-1 1.429,0 2.429,1 1,1 1,2.429 z"
         inkscape:connector-curvature="0"
         style="fill:#75308b" />
    </g>
    <g
       id="g3001"
       transform="translate(379.857,522.07697)">
      <path
         id="path3003"
         d="m 5.143,26.286 q 0,-0.714 -0.5,-1.214 -0.5,-0.5 -1.214,-0.5 -0.714,0 -1.214,0.5 -0.5,0.5 -0.5,1.214 0,0.714 0.5,1.214 0.5,0.5 1.214,0.5 0.714,0 1.214,-0.5 0.5,-0.5 0.5,-1.214 z m 0,-20.572 Q 5.143,5 4.643,4.5 4.143,4 3.429,4 2.715,4 2.215,4.5 q -0.5,0.5 -0.5,1.214 0,0.714 0.5,1.214 0.5,0.5 1.214,0.5 0.714,0 1.214,-0.5 0.5,-0.5 0.5,-1.214 z M 16.571,8 q 0,-0.714 -0.5,-1.214 -0.5,-0.5 -1.214,-0.5 -0.714,0 -1.214,0.5 -0.5,0.5 -0.5,1.214 0,0.714 0.5,1.214 0.5,0.5 1.214,0.5 0.714,0 1.214,-0.5 0.5,-0.5 0.5,-1.214 z m 1.715,0 q 0,0.929 -0.464,1.723 -0.464,0.794 -1.25,1.241 -0.036,5.125 -4.036,7.393 -1.214,0.679 -3.625,1.446 -2.286,0.714 -3.027,1.268 -0.741,0.554 -0.741,1.786 v 0.464 q 0.786,0.446 1.25,1.241 0.464,0.795 0.464,1.723 0,1.429 -1,2.429 -1,1 -2.429,1 -1.429,0 -2.429,-1 -1,-1 -1,-2.429 0,-0.929 0.464,-1.723 0.464,-0.794 1.25,-1.241 V 8.678 Q 0.927,8.232 0.463,7.437 -0.001,6.642 -0.001,5.714 q 0,-1.429 1,-2.429 1,-1 2.429,-1 1.429,0 2.429,1 1,1 1,2.429 0,0.929 -0.464,1.723 -0.464,0.794 -1.25,1.241 v 8.875 q 0.964,-0.464 2.75,-1.018 0.982,-0.304 1.562,-0.527 0.58,-0.223 1.259,-0.554 0.679,-0.331 1.054,-0.705 0.375,-0.374 0.723,-0.911 0.348,-0.537 0.5,-1.241 0.152,-0.704 0.152,-1.634 -0.786,-0.446 -1.25,-1.241 -0.464,-0.795 -0.464,-1.723 0,-1.429 1,-2.429 1,-1 2.429,-1 1.429,0 2.429,1 1,1 1,2.429 z"
         inkscape:connector-curvature="0"
         style="fill:#75308b" />
    </g>
  </g>
</svg>
