<?xml version="1.0" encoding="utf-8"?>
<!-- Generated by IcoMoon.io -->
<!DOCTYPE svg PUBLIC "-//W3C//DTD SVG 1.1//EN" "http://www.w3.org/Graphics/SVG/1.1/DTD/svg11.dtd">
<svg version="1.1" xmlns="http://www.w3.org/2000/svg" xmlns:xlink="http://www.w3.org/1999/xlink" width="18" height="32" viewBox="0 0 18 32">
<g transform="translate(0 0)">
	<path d="M5.143 26.286q0-0.714-0.5-1.214t-1.214-0.5-1.214 0.5-0.5 1.214 0.5 1.214 1.214 0.5 1.214-0.5 0.5-1.214zM5.143 5.714q0-0.714-0.5-1.214t-1.214-0.5-1.214 0.5-0.5 1.214 0.5 1.214 1.214 0.5 1.214-0.5 0.5-1.214zM16.571 8q0-0.714-0.5-1.214t-1.214-0.5-1.214 0.5-0.5 1.214 0.5 1.214 1.214 0.5 1.214-0.5 0.5-1.214zM18.286 8q0 0.929-0.464 1.723t-1.25 1.241q-0.036 5.125-4.036 7.393-1.214 0.679-3.625 1.446-2.286 0.714-3.027 1.268t-0.741 1.786v0.464q0.786 0.446 1.25 1.241t0.464 1.723q0 1.429-1 2.429t-2.429 1-2.429-1-1-2.429q0-0.929 0.464-1.723t1.25-1.241v-14.643q-0.786-0.446-1.25-1.241t-0.464-1.723q0-1.429 1-2.429t2.429-1 2.429 1 1 2.429q0 0.929-0.464 1.723t-1.25 1.241v8.875q0.964-0.464 2.75-1.018 0.982-0.304 1.562-0.527t1.259-0.554 1.054-0.705 0.723-0.911 0.5-1.241 0.152-1.634q-0.786-0.446-1.25-1.241t-0.464-1.723q0-1.429 1-2.429t2.429-1 2.429 1 1 2.429z" fill="#75308b" />
</g>
</svg>
