<?xml version="1.0" encoding="utf-8"?> <!-- Generator: IcoMoon.io --> <!DOCTYPE svg PUBLIC "-//W3C//DTD SVG 1.1//EN" "http://www.w3.org/Graphics/SVG/1.1/DTD/svg11.dtd"> <svg version="1.1" id="Layer_1" xmlns="http://www.w3.org/2000/svg" xmlns:xlink="http://www.w3.org/1999/xlink" x="0px" y="0px" width="48px" height="48px" viewBox="0 0 48 48" enable-background="new 0 0 16 16" xml:space="preserve" fill="#000000"> <path d="M 46.527,15.783c-2.424-6.633-7.674-11.886-14.313-14.31C 33.774,0.561, 35.562,0.00, 37.50,0.00 C 43.302,0.00, 48.00,4.701, 48.00,10.50C 48.00,12.438, 47.436,14.226, 46.527,15.783z M 45.00,24.00c0.00,5.712-2.298,10.881-6.00,14.667L39.00,39.00 l0.00,6.00 c0.00,1.659-1.341,3.00-3.00,3.00 s-3.00-1.341-3.00-3.00l0.00,-2.097 C 30.264,44.208, 27.234,45.00, 24.00,45.00c-3.237,0.00-6.264-0.792-9.00-2.097L15.00,45.00 c0.00,1.659-1.344,3.00-3.00,3.00s-3.00-1.341-3.00-3.00l0.00,-6.00 l0.00,-0.333 C 5.298,34.881, 3.00,29.712, 3.00,24.00c0.00-11.598, 9.402-21.00, 21.00-21.00S 45.00,12.402, 45.00,24.00z M 24.00,9.00C 15.717,9.00, 9.00,15.714, 9.00,24.00s 6.717,15.00, 15.00,15.00c 8.286,0.00, 15.00-6.714, 15.00-15.00 S 32.286,9.00, 24.00,9.00z M 30.00,27.00L24.00,27.00 C 22.344,27.00, 21.00,25.659, 21.00,24.00L21.00,18.00 c0.00-1.659, 1.344-3.00, 3.00-3.00c 1.659,0.00, 3.00,1.341, 3.00,3.00l0.00,3.00 l3.00,0.00 c 1.659,0.00, 3.00,1.341, 3.00,3.00S 31.659,27.00, 30.00,27.00z M 1.473,15.783C 0.561,14.226,0.00,12.438,0.00,10.50C0.00,4.701, 4.701,0.00, 10.50,0.00c 1.938,0.00, 3.726,0.561, 5.283,1.473 C 9.147,3.897, 3.897,9.15, 1.473,15.783z" ></path></svg>