<?xml version="1.0" encoding="utf-8"?> <!-- Generator: IcoMoon.io --> <!DOCTYPE svg PUBLIC "-//W3C//DTD SVG 1.1//EN" "http://www.w3.org/Graphics/SVG/1.1/DTD/svg11.dtd"> <svg version="1.1" id="Layer_1" xmlns="http://www.w3.org/2000/svg" xmlns:xlink="http://www.w3.org/1999/xlink" x="0px" y="0px" width="48px" height="48px" viewBox="0 0 48 48" enable-background="new 0 0 16 16" xml:space="preserve" fill="#000000"> <path d="M 36.00,3.00c0.00-1.659, 1.341-3.00, 3.00-3.00s 3.00,1.341, 3.00,3.00l0.00,28.50 c0.00,9.114-7.389,16.50-16.50,16.50S 9.00,40.614, 9.00,31.50L9.00,12.00 c0.00-6.627, 5.373-12.00, 12.00-12.00s 12.00,5.373, 12.00,12.00l0.00,19.50 c0.00,4.143-3.357,7.50-7.50,7.50S 18.00,35.643, 18.00,31.50L18.00,12.00 c0.00-1.656, 1.341-3.00, 3.00-3.00s 3.00,1.344, 3.00,3.00l0.00,19.50 C 24.00,32.328, 24.672,33.00, 25.50,33.00S 27.00,32.328, 27.00,31.50L27.00,12.00 c0.00-3.312-2.688-6.00-6.00-6.00S 15.00,8.688, 15.00,12.00l0.00,19.50 C 15.00,37.299, 19.701,42.00, 25.50,42.00s 10.50-4.701, 10.50-10.50L36.00,3.00 z" ></path></svg>