<?xml version="1.0" encoding="utf-8"?> <!-- Generator: IcoMoon.io --> <!DOCTYPE svg PUBLIC "-//W3C//DTD SVG 1.1//EN" "http://www.w3.org/Graphics/SVG/1.1/DTD/svg11.dtd"> <svg version="1.1" id="Layer_1" xmlns="http://www.w3.org/2000/svg" xmlns:xlink="http://www.w3.org/1999/xlink" x="0px" y="0px" width="48px" height="48px" viewBox="0 0 48 48" enable-background="new 0 0 16 16" xml:space="preserve" fill="#000000"> <path d="M 9.00,36.00c-4.971,0.00-9.00-4.032-9.00-9.00L0.00,21.00 c0.00-4.971, 4.029-9.00, 9.00-9.00l3.00,0.00 l 15.00-12.00l0.00,48.00 l-15.00-12.00L9.00,36.00 z M 21.00,36.00L21.00,27.00 L21.00,21.00 L21.00,12.00 L 15.00,18.00L9.00,18.00 C 7.341,18.00, 6.00,19.344, 6.00,21.00l0.00,6.00 c0.00,1.659, 1.341,3.00, 3.00,3.00l6.00,0.00 L 21.00,36.00z M 39.00,24.00c0.00,5.583-3.831,10.236-9.00,11.574L30.00,29.169 C 31.788,28.128, 33.00,26.214, 33.00,24.00s-1.212-4.128-3.00-5.169L30.00,12.426 C 35.169,13.761, 39.00,18.414, 39.00,24.00z" ></path></svg>