<?xml version="1.0" encoding="utf-8"?> <!-- Generator: IcoMoon.io --> <!DOCTYPE svg PUBLIC "-//W3C//DTD SVG 1.1//EN" "http://www.w3.org/Graphics/SVG/1.1/DTD/svg11.dtd"> <svg version="1.1" id="Layer_1" xmlns="http://www.w3.org/2000/svg" xmlns:xlink="http://www.w3.org/1999/xlink" x="0px" y="0px" width="48px" height="48px" viewBox="0 0 48 48" enable-background="new 0 0 16 16" xml:space="preserve" fill="#000000"> <path d="M 45.00,33.00l0.00,6.00 c0.00,1.659-1.341,3.00-3.00,3.00L3.00,42.00 c-1.656,0.00-3.00-1.341-3.00-3.00L0.00,12.00 c0.00-1.656, 1.344-3.00, 3.00-3.00l39.00,0.00 c 1.659,0.00, 3.00,1.344, 3.00,3.00l0.00,6.00 c 1.659,0.00, 3.00,1.344, 3.00,3.00l0.00,9.00 C 48.00,31.659, 46.659,33.00, 45.00,33.00z M 39.00,18.00c0.00-1.656-1.341-3.00-3.00-3.00L9.00,15.00 C 7.344,15.00, 6.00,16.344, 6.00,18.00l0.00,15.00 c0.00,1.659, 1.344,3.00, 3.00,3.00l27.00,0.00 c 1.659,0.00, 3.00-1.341, 3.00-3.00l0.00,-3.00 L39.00,21.00 L39.00,18.00 z" ></path></svg>