<?xml version="1.0" encoding="utf-8"?> <!-- Generator: IcoMoon.io --> <!DOCTYPE svg PUBLIC "-//W3C//DTD SVG 1.1//EN" "http://www.w3.org/Graphics/SVG/1.1/DTD/svg11.dtd"> <svg version="1.1" id="Layer_1" xmlns="http://www.w3.org/2000/svg" xmlns:xlink="http://www.w3.org/1999/xlink" x="0px" y="0px" width="48px" height="48px" viewBox="0 0 48 48" enable-background="new 0 0 16 16" xml:space="preserve" fill="#000000"> <path d="M 42.00,15.00l0.00,24.00 c0.00,4.971-4.032,9.00-9.00,9.00L15.00,48.00 c-4.971,0.00-9.00-4.029-9.00-9.00L6.00,15.00 C 4.344,15.00, 3.00,13.659, 3.00,12.00 s 1.344-3.00, 3.00-3.00l9.00,0.00 l0.00,0.00c0.00-4.971, 4.029-9.00, 9.00-9.00c 4.968,0.00, 9.00,4.029, 9.00,9.00l0.00,0.00l9.00,0.00 c 1.659,0.00, 3.00,1.341, 3.00,3.00S 43.659,15.00, 42.00,15.00z M 24.00,6.00C 22.344,6.00, 21.00,7.341, 21.00,9.00l6.00,0.00 C 27.00,7.341, 25.659,6.00, 24.00,6.00z M 12.00,15.00l0.00,24.00 c0.00,1.659, 1.344,3.00, 3.00,3.00l18.00,0.00 c 1.659,0.00, 3.00-1.341, 3.00-3.00L36.00,15.00 L12.00,15.00 z M 28.50,36.00C 27.675,36.00, 27.00,35.328, 27.00,34.50l0.00,-12.00 C 27.00,21.672, 27.675,21.00, 28.50,21.00C 29.328,21.00, 30.00,21.672, 30.00,22.50l0.00,12.00 C 30.00,35.328, 29.328,36.00, 28.50,36.00z M 19.50,36.00C 18.672,36.00, 18.00,35.328, 18.00,34.50l0.00,-12.00 C 18.00,21.672, 18.672,21.00, 19.50,21.00C 20.328,21.00, 21.00,21.672, 21.00,22.50l0.00,12.00 C 21.00,35.328, 20.328,36.00, 19.50,36.00z" ></path></svg>