<?xml version="1.0" encoding="utf-8"?> <!-- Generator: IcoMoon.io --> <!DOCTYPE svg PUBLIC "-//W3C//DTD SVG 1.1//EN" "http://www.w3.org/Graphics/SVG/1.1/DTD/svg11.dtd"> <svg version="1.1" id="Layer_1" xmlns="http://www.w3.org/2000/svg" xmlns:xlink="http://www.w3.org/1999/xlink" x="0px" y="0px" width="48px" height="48px" viewBox="0 0 48 48" enable-background="new 0 0 16 16" xml:space="preserve" fill="#000000"> <path d="M 45.00,42.00c-4.59,0.201-13.341,0.987-18.09,3.453 C 26.685,46.887, 25.497,48.00, 24.00,48.00c-1.497,0.00-2.682-1.113-2.91-2.547C 16.344,42.987, 7.59,42.201, 3.00,42.00c-1.656,0.00-3.00-1.341-3.00-3.00L0.00,3.00 c0.00-1.656, 1.344-3.00, 3.00-3.00c 0.105,0.00, 0.192,0.051, 0.297,0.06C 23.928,0.591, 24.00,6.00, 24.00,6.00s 0.072-5.409, 20.703-5.94C 44.808,0.051, 44.895,0.00, 45.00,0.00 c 1.659,0.00, 3.00,1.344, 3.00,3.00l0.00,36.00 C 48.00,40.659, 46.659,42.00, 45.00,42.00z M 21.00,9.402C 17.13,7.434, 10.728,6.615, 6.00,6.267l0.00,29.898 C 14.052,36.573, 18.558,37.779, 21.00,39.00 L21.00,9.402 z M 42.00,6.267c-4.728,0.348-11.13,1.167-15.00,3.135L27.00,39.00 c 2.442-1.221, 6.948-2.427, 15.00-2.835L42.00,6.267 z M 39.00,12.00l0.00,6.00 c0.00,0.00-9.00,0.00-9.00,3.00L30.00,15.00 C 30.00,15.00, 30.00,12.00, 39.00,12.00z M 39.00,24.00l0.00,6.00 c0.00,0.00-9.00,0.00-9.00,3.00L30.00,27.00 C 30.00,27.00, 30.00,24.00, 39.00,24.00z M 18.00,15.00l0.00,6.00 c0.00-3.00-9.00-3.00-9.00-3.00L9.00,12.00 C 18.00,12.00, 18.00,15.00, 18.00,15.00z M 18.00,27.00l0.00,6.00 c0.00-3.00-9.00-3.00-9.00-3.00L9.00,24.00 C 18.00,24.00, 18.00,27.00, 18.00,27.00z" ></path></svg>