<?xml version="1.0" encoding="utf-8"?> <!-- Generator: IcoMoon.io --> <!DOCTYPE svg PUBLIC "-//W3C//DTD SVG 1.1//EN" "http://www.w3.org/Graphics/SVG/1.1/DTD/svg11.dtd"> <svg version="1.1" id="Layer_1" xmlns="http://www.w3.org/2000/svg" xmlns:xlink="http://www.w3.org/1999/xlink" x="0px" y="0px" width="48px" height="48px" viewBox="0 0 48 48" enable-background="new 0 0 16 16" xml:space="preserve" fill="#000000"> <path d="M 42.00,27.00c-1.659,0.00-3.00-1.344-3.00-3.00s 1.341-3.00, 3.00-3.00s 3.00,1.344, 3.00,3.00S 43.659,27.00, 42.00,27.00 z M 34.605,13.395c-1.173-1.173-1.173-3.072,0.00-4.245s 3.072-1.173, 4.245,0.00c 1.17,1.173, 1.17,3.072,0.00,4.245 C 37.68,14.565, 35.778,14.565, 34.605,13.395z M 24.00,36.00c-6.627,0.00-12.00-5.373-12.00-12.00s 5.373-12.00, 12.00-12.00s 12.00,5.373, 12.00,12.00S 30.627,36.00, 24.00,36.00z M 24.00,18.00 C 20.688,18.00, 18.00,20.688, 18.00,24.00s 2.688,6.00, 6.00,6.00s 6.00-2.688, 6.00-6.00S 27.312,18.00, 24.00,18.00z M 24.00,9.00C 22.341,9.00, 21.00,7.656, 21.00,6.00s 1.341-3.00, 3.00-3.00s 3.00,1.344, 3.00,3.00S 25.659,9.00, 24.00,9.00z M 9.153,13.395c-1.173-1.173-1.173-3.072,0.00-4.245c 1.17-1.173, 3.069-1.173, 4.242,0.00s 1.173,3.072,0.00,4.245 C 12.222,14.565, 10.32,14.565, 9.153,13.395z M 6.00,27.00C 4.341,27.00, 3.00,25.656, 3.00,24.00s 1.341-3.00, 3.00-3.00s 3.00,1.344, 3.00,3.00S 7.659,27.00, 6.00,27.00z M 13.395,34.605 c 1.173,1.173, 1.173,3.069,0.00,4.242s-3.072,1.173-4.242,0.00c-1.173-1.173-1.173-3.069,0.00-4.242C 10.32,33.435, 12.222,33.435, 13.395,34.605z M 24.00,39.00c 1.659,0.00, 3.00,1.341, 3.00,3.00s-1.341,3.00-3.00,3.00s-3.00-1.341-3.00-3.00S 22.341,39.00, 24.00,39.00z M 38.85,34.605c 1.17,1.173, 1.17,3.069,0.00,4.242 c-1.173,1.173-3.072,1.173-4.245,0.00s-1.173-3.069,0.00-4.242S 37.68,33.435, 38.85,34.605z" ></path></svg>