<?xml version="1.0" encoding="utf-8"?> <!-- Generator: IcoMoon.io --> <!DOCTYPE svg PUBLIC "-//W3C//DTD SVG 1.1//EN" "http://www.w3.org/Graphics/SVG/1.1/DTD/svg11.dtd"> <svg version="1.1" id="Layer_1" xmlns="http://www.w3.org/2000/svg" xmlns:xlink="http://www.w3.org/1999/xlink" x="0px" y="0px" width="48px" height="48px" viewBox="0 0 48 48" enable-background="new 0 0 16 16" xml:space="preserve" fill="#000000"> <path d="M 39.00,15.00l-2.724,0.00 C 36.108,15.942, 36.00,16.941, 36.00,18.00s 0.108,2.058, 0.276,3.00L39.00,21.00 c 1.659,0.00, 3.00-1.344, 3.00-3.00S 40.659,15.00, 39.00,15.00z M 39.00,0.00c-8.532,8.718-21.00,9.00-21.00,9.00L9.00,9.00 C 4.029,9.00,0.00,13.029,0.00,18.00s 4.029,9.00, 9.00,9.00 c0.00,0.417, 0.084,0.81, 0.237,1.167c 0.282,0.675, 0.816,1.194, 1.47,1.512C 10.752,29.70, 10.785,29.742, 10.833,29.766C 11.19,29.919, 11.586,30.00, 12.00,30.00 l-3.00,15.00c0.00,1.659, 1.344,3.00, 3.00,3.00l6.00,0.00 c 1.656,0.00, 3.00-1.341, 3.00-3.00s-1.344-3.00-3.00-3.00l 2.40-12.00L21.00,30.00 c 1.353,0.00, 2.454-0.915, 2.826-2.145 C 28.194,28.875, 34.215,31.11, 39.00,36.00c 4.968,0.00, 9.00-8.061, 9.00-18.00S 43.968,0.00, 39.00,0.00z M 9.00,21.00L6.00,21.00 L6.00,15.00 l3.00,0.00 L9.00,21.00 z M 39.00,30.00c-3.312,0.00-6.00-5.373-6.00-12.00s 2.688-12.00, 6.00-12.00 s 6.00,5.373, 6.00,12.00S 42.312,30.00, 39.00,30.00z" ></path></svg>