<?xml version="1.0" encoding="utf-8"?> <!-- Generator: IcoMoon.io --> <!DOCTYPE svg PUBLIC "-//W3C//DTD SVG 1.1//EN" "http://www.w3.org/Graphics/SVG/1.1/DTD/svg11.dtd"> <svg version="1.1" id="Layer_1" xmlns="http://www.w3.org/2000/svg" xmlns:xlink="http://www.w3.org/1999/xlink" x="0px" y="0px" width="48px" height="48px" viewBox="0 0 48 48" enable-background="new 0 0 16 16" xml:space="preserve" fill="#000000"> <path d="M 39.00,42.00L 39.00,42.00l-3.00,0.00 c0.00-3.312-2.688-6.00-6.00-6.00L18.00,36.00 c-3.312,0.00-6.00,2.688-6.00,6.00L9.00,42.00 l0.00,0.00 c-4.971,0.00-9.00-4.032-9.00-9.00L0.00,15.00 c0.00-4.971, 4.029-9.00, 9.00-9.00l30.00,0.00 c 4.968,0.00, 9.00,4.029, 9.00,9.00l0.00,18.00 C 48.00,37.968, 43.968,42.00, 39.00,42.00z M 39.00,39.00l3.00,0.00 l0.00,-3.00 l-3.00,0.00 L39.00,39.00 z M 6.00,39.00l3.00,0.00 l0.00,-3.00 L6.00,36.00 L6.00,39.00 z M 42.00,15.00c0.00-1.656-1.341-3.00-3.00-3.00L9.00,12.00 C 7.344,12.00, 6.00,13.344, 6.00,15.00l0.00,15.00 c0.00,1.659, 1.344,3.00, 3.00,3.00l30.00,0.00 c 1.659,0.00, 3.00-1.341, 3.00-3.00L42.00,15.00 z M 34.50,30.00 C 32.016,30.00, 30.00,27.984, 30.00,25.50S 32.016,21.00, 34.50,21.00S 39.00,23.016, 39.00,25.50S 36.984,30.00, 34.50,30.00z M 9.00,15.00l30.00,0.00 l0.00,3.00 L9.00,18.00 L9.00,15.00 z M 13.50,21.00C 15.987,21.00, 18.00,23.016, 18.00,25.50 S 15.987,30.00, 13.50,30.00S 9.00,27.984, 9.00,25.50S 11.013,21.00, 13.50,21.00z M 27.00,27.00L21.00,27.00 L21.00,24.00 l6.00,0.00 L27.00,27.00 z M 19.50,39.00l9.00,0.00 c 1.956,0.00, 3.603,1.257, 4.224,3.00L15.276,42.00 C 15.894,40.257, 17.544,39.00, 19.50,39.00z" ></path></svg>