<?xml version="1.0" encoding="utf-8"?> <!-- Generator: IcoMoon.io --> <!DOCTYPE svg PUBLIC "-//W3C//DTD SVG 1.1//EN" "http://www.w3.org/Graphics/SVG/1.1/DTD/svg11.dtd"> <svg version="1.1" id="Layer_1" xmlns="http://www.w3.org/2000/svg" xmlns:xlink="http://www.w3.org/1999/xlink" x="0px" y="0px" width="48px" height="48px" viewBox="0 0 48 48" enable-background="new 0 0 16 16" xml:space="preserve" fill="#000000"> <path d="M 26.127,24.879 L 32.127,30.879 C 32.766,31.524 33.069,32.409 32.988,33.288 C 32.964,33.582 32.895,33.867 32.778,34.149 C 32.316,35.268 31.218,36.00 30.006,36.00 L 27.00,36.00 L 27.00,45.00 C 27.00,46.659 25.659,48.00 24.00,48.00 C 22.341,48.00 21.00,46.659 21.00,45.00 L 21.00,36.00 L 18.006,36.00 C 16.794,36.00 15.696,35.268 15.234,34.149 C 15.117,33.867 15.048,33.582 15.018,33.288 C 14.937,32.409 15.24,31.524 15.885,30.879 L 21.885,24.879 C 22.47,24.294 23.238,24.00 24.006,24.00 C 24.774,24.00 25.542,24.294 26.127,24.879 Z M 39.00,15.00 C 43.971,15.00 48.00,19.032 48.00,24.00 L 48.00,27.00 C 48.00,31.971 43.971,36.00 39.00,36.00 L 38.463,36.00 C 38.721,35.277 38.904,34.539 38.961,33.843 C 39.21,31.179 38.274,28.56 36.369,26.637 L 30.369,20.637 C 28.671,18.936 26.409,18.00 24.006,18.00 C 21.603,18.00 19.341,18.936 17.64,20.637 L 11.64,26.637 C 9.738,28.539 8.793,31.167 9.045,33.885 C 9.111,34.512 9.261,35.121 9.447,35.715 C 4.05,34.545 0.00,29.751 0.00,24.00 L 0.00,21.00 C 0.00,14.373 5.373,9.00 12.00,9.00 C 13.143,9.00 14.22,9.21 15.267,9.507 C 16.416,4.077 21.228,0.00 27.00,0.00 C 33.627,0.00 39.00,5.373 39.00,12.00 C 39.00,13.059 38.817,14.067 38.562,15.045 C 38.709,15.036 38.85,15.00 39.00,15.00 Z" ></path></svg>