<?xml version="1.0" encoding="utf-8"?> <!-- Generator: IcoMoon.io --> <!DOCTYPE svg PUBLIC "-//W3C//DTD SVG 1.1//EN" "http://www.w3.org/Graphics/SVG/1.1/DTD/svg11.dtd"> <svg version="1.1" id="Layer_1" xmlns="http://www.w3.org/2000/svg" xmlns:xlink="http://www.w3.org/1999/xlink" x="0px" y="0px" width="48px" height="48px" viewBox="0 0 48 48" enable-background="new 0 0 16 16" xml:space="preserve" fill="#000000"> <path d="M 45.00,27.00l-12.552,0.00 C 31.209,30.489, 27.915,33.00, 24.00,33.00c-3.912,0.00-7.209-2.511-8.448-6.00L3.00,27.00 C 1.344,27.00,0.00,25.659,0.00,24.00s 1.344-3.00, 3.00-3.00l12.552,0.00 C 16.791,17.514, 20.088,15.00, 24.00,15.00c 3.915,0.00, 7.209,2.514, 8.448,6.00L45.00,21.00 c 1.659,0.00, 3.00,1.341, 3.00,3.00S 46.659,27.00, 45.00,27.00 z M 24.00,21.00C 22.344,21.00, 21.00,22.341, 21.00,24.00s 1.344,3.00, 3.00,3.00c 1.659,0.00, 3.00-1.341, 3.00-3.00S 25.659,21.00, 24.00,21.00z" ></path></svg>