<?xml version="1.0" encoding="utf-8"?> <!-- Generator: IcoMoon.io --> <!DOCTYPE svg PUBLIC "-//W3C//DTD SVG 1.1//EN" "http://www.w3.org/Graphics/SVG/1.1/DTD/svg11.dtd"> <svg version="1.1" id="Layer_1" xmlns="http://www.w3.org/2000/svg" xmlns:xlink="http://www.w3.org/1999/xlink" x="0px" y="0px" width="48px" height="48px" viewBox="0 0 48 48" enable-background="new 0 0 16 16" xml:space="preserve" fill="#000000"> <path d="M 39.00,18.00 C 43.971,18.00 48.00,13.971 48.00,9.00 C 48.00,4.029 43.971,0.00 39.00,0.00 L 39.00,0.00 C 12.00,0.00 9.00,36.00 9.00,36.00 L 9.00,37.50 C 9.00,38.328 9.672,39.00 10.50,39.00 C 11.328,39.00 12.00,38.328 12.00,37.50 L 12.00,36.00 C 12.00,36.00 12.306,31.752 15.024,28.377 C 15.024,28.422 15.00,28.455 15.00,28.50 C 15.00,30.984 17.016,33.00 19.50,33.00 C 21.984,33.00 24.00,30.984 24.00,28.50 C 24.00,27.744 23.766,27.063 23.436,26.436 C 24.063,26.766 24.741,27.00 25.50,27.00 C 27.984,27.00 30.00,24.984 30.00,22.50 C 30.00,21.744 29.766,21.063 29.436,20.436 C 30.063,20.766 30.741,21.00 31.50,21.00 C 33.681,21.00 35.412,19.422 35.823,17.364 C 36.813,17.748 37.872,18.00 39.00,18.00 ZM 42.00,23.697 C 44.229,23.244 46.248,22.251 48.00,20.925 L 48.00,39.00 C 48.00,43.971 43.971,48.00 39.00,48.00 L 9.00,48.00 C 4.029,48.00 0.00,43.971 0.00,39.00 L 0.00,9.00 C 0.00,4.029 4.029,0.00 9.00,0.00 L 20.541,0.00 C 18.198,1.746 16.107,3.759 14.295,6.00 L 9.00,6.00 C 7.344,6.00 6.00,7.344 6.00,9.00 L 6.00,39.00 C 6.00,40.659 7.344,42.00 9.00,42.00 L 39.00,42.00 C 40.659,42.00 42.00,40.659 42.00,39.00 L 42.00,23.697 Z" ></path></svg>