<?xml version="1.0" encoding="utf-8"?> <!-- Generator: IcoMoon.io --> <!DOCTYPE svg PUBLIC "-//W3C//DTD SVG 1.1//EN" "http://www.w3.org/Graphics/SVG/1.1/DTD/svg11.dtd"> <svg version="1.1" id="Layer_1" xmlns="http://www.w3.org/2000/svg" xmlns:xlink="http://www.w3.org/1999/xlink" x="0px" y="0px" width="48px" height="48px" viewBox="0 0 48 48" enable-background="new 0 0 16 16" xml:space="preserve" fill="#000000"> <path d="M 24.00,48.00c-13.254,0.00-24.00-10.746-24.00-24.00s 10.746-24.00, 24.00-24.00s 24.00,10.746, 24.00,24.00 S 37.254,48.00, 24.00,48.00z M 24.00,6.00C 14.061,6.00, 6.00,14.061, 6.00,24.00c0.00,9.942, 8.061,18.00, 18.00,18.00s 18.00-8.058, 18.00-18.00C 42.00,14.061, 33.939,6.00, 24.00,6.00z M 24.00,39.00L24.00,9.00 c 8.286,0.00, 15.00,6.717, 15.00,15.00 C 39.00,32.286, 32.286,39.00, 24.00,39.00z" ></path></svg>