<?xml version="1.0" encoding="utf-8"?> <!-- Generator: IcoMoon.io --> <!DOCTYPE svg PUBLIC "-//W3C//DTD SVG 1.1//EN" "http://www.w3.org/Graphics/SVG/1.1/DTD/svg11.dtd"> <svg version="1.1" id="Layer_1" xmlns="http://www.w3.org/2000/svg" xmlns:xlink="http://www.w3.org/1999/xlink" x="0px" y="0px" width="48px" height="48px" viewBox="0 0 48 48" enable-background="new 0 0 16 16" xml:space="preserve" fill="#000000"> <path d="M 18.00,27.00 C 19.659,27.00 21.00,28.341 21.00,30.00 L 21.00,39.00 C 21.00,40.212 20.268,41.31 19.149,41.772 C 18.777,41.925 18.387,42.00 18.00,42.00 C 17.22,42.00 16.452,41.694 15.879,41.121 L 13.50,38.742 L 5.121,47.121 C 3.948,48.294 2.052,48.294 0.879,47.121 C -0.294,45.948 -0.294,44.052 0.879,42.879 L 9.258,34.50 L 6.879,32.121 C 6.021,31.263 5.766,29.973 6.228,28.851 C 6.69,27.732 7.788,27.00 9.00,27.00 L 18.00,27.00 ZM 30.00,21.00 C 28.341,21.00 27.00,19.659 27.00,18.00 L 27.00,9.00 C 27.00,7.788 27.732,6.69 28.851,6.228 C 29.223,6.075 29.613,6.00 30.00,6.00 C 30.78,6.00 31.548,6.306 32.121,6.879 L 34.50,9.258 L 42.879,0.879 C 44.052-0.294 45.948-0.294 47.121,0.879 C 48.294,2.052 48.294,3.948 47.121,5.121 L 38.742,13.50 L 41.121,15.879 C 41.979,16.737 42.234,18.027 41.772,19.149 C 41.31,20.268 40.212,21.00 39.00,21.00 L 30.00,21.00 ZM 19.149,6.228 C 20.268,6.69 21.00,7.788 21.00,9.00 L 21.00,18.00 C 21.00,19.659 19.659,21.00 18.00,21.00 L 9.00,21.00 C 7.788,21.00 6.69,20.268 6.228,19.149 C 5.766,18.027 6.021,16.737 6.879,15.879 L 9.258,13.50 L 0.879,5.121 C -0.294,3.948 -0.294,2.052 0.879,0.879 C 2.052-0.294 3.948-0.294 5.121,0.879 L 13.50,9.258 L 15.879,6.879 C 16.452,6.306 17.22,6.00 18.00,6.00 C 18.387,6.00 18.777,6.075 19.149,6.228 ZM 38.742,34.50 L 47.121,42.879 C 48.294,44.052 48.294,45.948 47.121,47.121 C 45.948,48.294 44.052,48.294 42.879,47.121 L 34.50,38.742 L 32.121,41.121 C 31.548,41.694 30.78,42.00 30.00,42.00 C 29.613,42.00 29.223,41.925 28.851,41.772 C 27.732,41.31 27.00,40.212 27.00,39.00 L 27.00,30.00 C 27.00,28.341 28.341,27.00 30.00,27.00 L 39.00,27.00 C 40.212,27.00 41.31,27.732 41.772,28.851 C 42.234,29.973 41.979,31.263 41.121,32.121 L 38.742,34.50 Z" ></path></svg>