<?xml version="1.0" encoding="utf-8"?> <!-- Generator: IcoMoon.io --> <!DOCTYPE svg PUBLIC "-//W3C//DTD SVG 1.1//EN" "http://www.w3.org/Graphics/SVG/1.1/DTD/svg11.dtd"> <svg version="1.1" id="Layer_1" xmlns="http://www.w3.org/2000/svg" xmlns:xlink="http://www.w3.org/1999/xlink" x="0px" y="0px" width="48px" height="48px" viewBox="0 0 48 48" enable-background="new 0 0 16 16" xml:space="preserve" fill="#000000"> <path d="M 45.00,42.00L3.00,42.00 c-1.656,0.00-3.00-1.341-3.00-3.00L0.00,12.00 L0.00,9.00 c0.00-1.659, 1.344-3.00, 3.00-3.00l42.00,0.00 c 1.659,0.00, 3.00,1.341, 3.00,3.00l0.00,30.00 C 48.00,40.659, 46.659,42.00, 45.00,42.00z M 45.00,9.00L3.00,9.00 l0.00,3.00 l42.00,0.00 L45.00,9.00 z M 45.00,18.00L3.00,18.00 l0.00,21.00 l42.00,0.00 L45.00,18.00 z M 15.00,24.00L6.00,24.00 L6.00,21.00 l9.00,0.00 L15.00,24.00 z M 9.00,30.00L6.00,30.00 L6.00,27.00 l3.00,0.00 L9.00,30.00 z M 15.00,36.00L6.00,36.00 l0.00,-3.00 l9.00,0.00 L15.00,36.00 z M 28.50,21.00c 1.065,0.00, 2.079,0.231, 3.00,0.633C 32.421,21.231, 33.435,21.00, 34.50,21.00C 38.643,21.00, 42.00,24.357, 42.00,28.50S 38.643,36.00, 34.50,36.00 c-1.065,0.00-2.079-0.231-3.00-0.633C 30.579,35.769, 29.565,36.00, 28.50,36.00C 24.357,36.00, 21.00,32.643, 21.00,28.50S 24.357,21.00, 28.50,21.00z M 34.47,32.994 c 0.012,0.00, 0.018,0.006, 0.03,0.006c 2.484,0.00, 4.50-2.016, 4.50-4.50S 36.984,24.00, 34.50,24.00c-0.012,0.00-0.018,0.006-0.03,0.006 C 35.418,25.263, 36.00,26.808, 36.00,28.50S 35.418,31.74, 34.47,32.994z M 31.50,31.806C 32.409,30.981, 33.00,29.82, 33.00,28.50s-0.591-2.481-1.50-3.306 C 30.591,26.019, 30.00,27.18, 30.00,28.50S 30.591,30.981, 31.50,31.806z M 28.50,33.00c 0.012,0.00, 0.018-0.006, 0.03-0.006C 27.582,31.74, 27.00,30.192, 27.00,28.50 s 0.582-3.237, 1.53-4.494C 28.518,24.006, 28.512,24.00, 28.50,24.00C 26.013,24.00, 24.00,26.016, 24.00,28.50S 26.013,33.00, 28.50,33.00z" ></path></svg>