<?xml version="1.0" encoding="utf-8"?> <!-- Generator: IcoMoon.io --> <!DOCTYPE svg PUBLIC "-//W3C//DTD SVG 1.1//EN" "http://www.w3.org/Graphics/SVG/1.1/DTD/svg11.dtd"> <svg version="1.1" id="Layer_1" xmlns="http://www.w3.org/2000/svg" xmlns:xlink="http://www.w3.org/1999/xlink" x="0px" y="0px" width="48px" height="48px" viewBox="0 0 48 48" enable-background="new 0 0 16 16" xml:space="preserve" fill="#000000"> <path d="M 42.00,30.00c-3.312,0.00-6.00-2.688-6.00-6.00s 2.688-6.00, 6.00-6.00s 6.00,2.688, 6.00,6.00 S 45.312,30.00, 42.00,30.00z M 24.00,30.00c-3.312,0.00-6.00-2.688-6.00-6.00s 2.688-6.00, 6.00-6.00s 6.00,2.688, 6.00,6.00S 27.312,30.00, 24.00,30.00z M 6.00,30.00c-3.312,0.00-6.00-2.688-6.00-6.00s 2.688-6.00, 6.00-6.00 s 6.00,2.688, 6.00,6.00S 9.312,30.00, 6.00,30.00z" ></path></svg>