<?xml version="1.0" encoding="utf-8"?> <!-- Generator: IcoMoon.io --> <!DOCTYPE svg PUBLIC "-//W3C//DTD SVG 1.1//EN" "http://www.w3.org/Graphics/SVG/1.1/DTD/svg11.dtd"> <svg version="1.1" id="Layer_1" xmlns="http://www.w3.org/2000/svg" xmlns:xlink="http://www.w3.org/1999/xlink" x="0px" y="0px" width="48px" height="48px" viewBox="0 0 48 48" enable-background="new 0 0 16 16" xml:space="preserve" fill="#000000"> <path d="M 39.00,42.00L9.00,42.00 c-4.971,0.00-9.00-4.029-9.00-9.00L0.00,15.00 c0.00-4.971, 4.029-9.00, 9.00-9.00l30.00,0.00 c 4.968,0.00, 9.00,4.029, 9.00,9.00l0.00,18.00 C 48.00,37.971, 43.968,42.00, 39.00,42.00z M 9.00,12.00C 8.265,12.00, 7.62,12.294, 7.098,12.732L 24.00,24.00l 16.905-11.268C 40.383,12.294, 39.732,12.00, 39.00,12.00L9.00,12.00 z M 42.00,18.00l-18.00,12.00L 6.00,18.00l0.00,12.00 l 9.00-3.00l-8.121,8.121C 7.422,35.664, 8.172,36.00, 9.00,36.00l30.00,0.00 c 0.828,0.00, 1.578-0.336, 2.121-0.879L 33.00,27.00l 9.00,3.00L42.00,18.00 z" ></path></svg>