<?xml version="1.0" encoding="utf-8"?> <!-- Generator: IcoMoon.io --> <!DOCTYPE svg PUBLIC "-//W3C//DTD SVG 1.1//EN" "http://www.w3.org/Graphics/SVG/1.1/DTD/svg11.dtd"> <svg version="1.1" id="Layer_1" xmlns="http://www.w3.org/2000/svg" xmlns:xlink="http://www.w3.org/1999/xlink" x="0px" y="0px" width="48px" height="48px" viewBox="0 0 48 48" enable-background="new 0 0 16 16" xml:space="preserve" fill="#000000"> <path d="M 11.742,7.50 L 20.121,15.879 C 21.294,17.052 21.294,18.948 20.121,20.121 C 18.948,21.294 17.052,21.294 15.879,20.121 L 7.50,11.742 L 5.121,14.121 C 4.548,14.694 3.78,15.00 3.00,15.00 C 2.613,15.00 2.223,14.925 1.851,14.772 C 0.732,14.307 0.00,13.212 0.00,12.00 L 0.00,3.00 C 0.00,1.344 1.344,0.00 3.00,0.00 L 12.00,0.00 C 13.212,0.00 14.307,0.732 14.772,1.851 C 15.237,2.973 14.979,4.263 14.121,5.121 L 11.742,7.50 ZM 45.00,0.00 C 46.659,0.00 48.00,1.344 48.00,3.00 L 48.00,12.00 C 48.00,13.212 47.268,14.307 46.149,14.772 C 45.777,14.925 45.387,15.00 45.00,15.00 C 44.22,15.00 43.452,14.694 42.879,14.121 L 40.50,11.742 L 32.121,20.121 C 30.948,21.294 29.052,21.294 27.879,20.121 C 26.706,18.948 26.706,17.052 27.879,15.879 L 36.258,7.50 L 33.879,5.121 C 33.021,4.263 32.766,2.973 33.228,1.851 C 33.69,0.732 34.788,0.00 36.00,0.00 L 45.00,0.00 ZM 15.879,27.879 C 17.052,26.706 18.948,26.706 20.121,27.879 C 21.294,29.052 21.294,30.948 20.121,32.121 L 11.742,40.50 L 14.121,42.879 C 14.979,43.737 15.237,45.027 14.772,46.149 C 14.307,47.268 13.212,48.00 12.00,48.00 L 3.00,48.00 C 1.344,48.00 0.00,46.659 0.00,45.00 L 0.00,36.00 C 0.00,34.788 0.732,33.69 1.851,33.228 C 2.223,33.075 2.613,33.00 3.00,33.00 C 3.78,33.00 4.548,33.306 5.121,33.879 L 7.50,36.258 L 15.879,27.879 ZM 46.149,33.228 C 47.268,33.69 48.00,34.788 48.00,36.00 L 48.00,45.00 C 48.00,46.659 46.659,48.00 45.00,48.00 L 36.00,48.00 C 34.788,48.00 33.69,47.268 33.228,46.149 C 32.766,45.027 33.021,43.737 33.879,42.879 L 36.258,40.50 L 27.879,32.121 C 26.706,30.948 26.706,29.052 27.879,27.879 C 29.052,26.706 30.948,26.706 32.121,27.879 L 40.50,36.258 L 42.879,33.879 C 43.452,33.306 44.22,33.00 45.00,33.00 C 45.387,33.00 45.777,33.075 46.149,33.228 Z" ></path></svg>