<?xml version="1.0" encoding="utf-8"?> <!-- Generator: IcoMoon.io --> <!DOCTYPE svg PUBLIC "-//W3C//DTD SVG 1.1//EN" "http://www.w3.org/Graphics/SVG/1.1/DTD/svg11.dtd"> <svg version="1.1" id="Layer_1" xmlns="http://www.w3.org/2000/svg" xmlns:xlink="http://www.w3.org/1999/xlink" x="0px" y="0px" width="48px" height="48px" viewBox="0 0 48 48" enable-background="new 0 0 16 16" xml:space="preserve" fill="#000000"> <path d="M 1.584,38.646 C 0.609,38.121 0.00,37.107 0.00,36.00 L 0.00,12.00 C 0.00,10.893 0.612,9.876 1.587,9.354 C 2.562,8.832 3.744,8.892 4.665,9.504 L 22.665,21.504 C 23.499,22.062 24.00,22.995 24.00,24.00 C 24.00,25.002 23.499,25.938 22.662,26.496 L 4.662,38.496 C 3.744,39.111 2.559,39.168 1.584,38.646 Z M 25.584,38.646 C 24.609,38.121 24.00,37.107 24.00,36.00 L 24.00,24.00 L 24.00,12.00 C 24.00,10.893 24.612,9.876 25.587,9.354 C 26.562,8.832 27.744,8.892 28.665,9.504 L 46.665,21.504 C 47.499,22.062 48.00,22.995 48.00,24.00 C 48.00,25.002 47.499,25.938 46.662,26.496 L 28.662,38.496 C 27.744,39.111 26.559,39.168 25.584,38.646 Z" ></path></svg>