<?xml version="1.0" encoding="utf-8"?> <!-- Generator: IcoMoon.io --> <!DOCTYPE svg PUBLIC "-//W3C//DTD SVG 1.1//EN" "http://www.w3.org/Graphics/SVG/1.1/DTD/svg11.dtd"> <svg version="1.1" id="Layer_1" xmlns="http://www.w3.org/2000/svg" xmlns:xlink="http://www.w3.org/1999/xlink" x="0px" y="0px" width="48px" height="48px" viewBox="0 0 48 48" enable-background="new 0 0 16 16" xml:space="preserve" fill="#000000"> <path d="M 45.00,48.00l-3.00,0.00 l0.00,-4.50 c0.00-0.825-0.672-1.50-1.50-1.50S 39.00,42.675, 39.00,43.50L39.00,48.00 l-6.00,0.00 l0.00,-1.50 c0.00-0.825-0.672-1.50-1.50-1.50S 30.00,45.675, 30.00,46.50L30.00,48.00 L18.00,48.00 l0.00,-1.50 C 18.00,45.675, 17.328,45.00, 16.50,45.00S 15.00,45.675, 15.00,46.50L15.00,48.00 L3.00,48.00 c-1.659,0.00-3.00-1.341-3.00-3.00 L0.00,3.00 c0.00-1.656, 1.341-3.00, 3.00-3.00l42.00,0.00 c 1.659,0.00, 3.00,1.344, 3.00,3.00l0.00,42.00 C 48.00,46.659, 46.659,48.00, 45.00,48.00z M 21.00,42.00c0.00,1.659, 1.341,3.00, 3.00,3.00s 3.00-1.341, 3.00-3.00l0.00,-3.00 c0.00-1.659-1.341-3.00-3.00-3.00s-3.00,1.341-3.00,3.00L21.00,42.00 z M 24.00,33.00c 4.971,0.00, 9.00-4.032, 9.00-9.00c0.00-4.971-4.029-9.00-9.00-9.00S 15.00,19.029, 15.00,24.00C 15.00,28.968, 19.029,33.00, 24.00,33.00z M 45.00,6.00 c0.00-1.656-1.341-3.00-3.00-3.00L6.00,3.00 C 4.341,3.00, 3.00,4.344, 3.00,6.00l0.00,3.00 c0.00,1.656, 1.341,3.00, 3.00,3.00l36.00,0.00 c 1.659,0.00, 3.00-1.344, 3.00-3.00L45.00,6.00 z M 6.00,6.00l21.00,0.00 l0.00,3.00 L6.00,9.00 L6.00,6.00 z M 24.00,18.00 c 3.312,0.00, 6.00,2.688, 6.00,6.00s-2.688,6.00-6.00,6.00S 18.00,27.312, 18.00,24.00S 20.688,18.00, 24.00,18.00z M 24.00,27.00c 1.659,0.00, 3.00-1.344, 3.00-3.00S 25.659,21.00, 24.00,21.00S 21.00,22.344, 21.00,24.00S 22.341,27.00, 24.00,27.00z" ></path></svg>