<?xml version="1.0" encoding="utf-8"?> <!-- Generator: IcoMoon.io --> <!DOCTYPE svg PUBLIC "-//W3C//DTD SVG 1.1//EN" "http://www.w3.org/Graphics/SVG/1.1/DTD/svg11.dtd"> <svg version="1.1" id="Layer_1" xmlns="http://www.w3.org/2000/svg" xmlns:xlink="http://www.w3.org/1999/xlink" x="0px" y="0px" width="48px" height="48px" viewBox="0 0 48 48" enable-background="new 0 0 16 16" xml:space="preserve" fill="#000000"> <path d="M 30.00,30.00 L 18.00,30.00 C 17.151,30.00 16.392,30.36 15.846,30.927 C 18.882,32.37 21.00,35.418 21.00,39.00 C 21.00,43.971 16.971,48.00 12.00,48.00 C 7.029,48.00 3.00,43.971 3.00,39.00 C 3.00,35.085 5.511,31.791 9.00,30.549 L 9.00,17.448 C 5.511,16.209 3.00,12.915 3.00,9.00 C 3.00,4.029 7.029,0.00 12.00,0.00 C 16.971,0.00 21.00,4.029 21.00,9.00 C 21.00,12.915 18.489,16.209 15.00,17.448 L 15.00,24.552 C 15.942,24.216 16.941,24.00 18.00,24.00 L 30.00,24.00 C 31.659,24.00 33.00,22.659 33.00,21.00 L 33.00,20.448 C 29.514,19.209 27.00,15.915 27.00,12.00 C 27.00,7.029 31.032,3.00 36.00,3.00 C 40.968,3.00 45.00,7.029 45.00,12.00 C 45.00,15.915 42.486,19.209 39.00,20.448 L 39.00,21.00 C 39.00,25.971 34.968,30.00 30.00,30.00 Z M 36.00,9.00 C 37.659,9.00 39.00,10.341 39.00,12.00 C 39.00,13.659 37.659,15.00 36.00,15.00 C 34.341,15.00 33.00,13.659 33.00,12.00 C 33.00,10.341 34.341,9.00 36.00,9.00 Z M 12.00,6.00 C 13.656,6.00 15.00,7.341 15.00,9.00 C 15.00,10.659 13.656,12.00 12.00,12.00 C 10.344,12.00 9.00,10.659 9.00,9.00 C 9.00,7.341 10.344,6.00 12.00,6.00 Z M 12.00,36.00 C 13.656,36.00 15.00,37.341 15.00,39.00 C 15.00,40.659 13.656,42.00 12.00,42.00 C 10.344,42.00 9.00,40.659 9.00,39.00 C 9.00,37.341 10.344,36.00 12.00,36.00 Z" ></path></svg>