<?xml version="1.0" encoding="utf-8"?> <!-- Generator: IcoMoon.io --> <!DOCTYPE svg PUBLIC "-//W3C//DTD SVG 1.1//EN" "http://www.w3.org/Graphics/SVG/1.1/DTD/svg11.dtd"> <svg version="1.1" id="Layer_1" xmlns="http://www.w3.org/2000/svg" xmlns:xlink="http://www.w3.org/1999/xlink" x="0px" y="0px" width="48px" height="48px" viewBox="0 0 48 48" enable-background="new 0 0 16 16" xml:space="preserve" fill="#000000"> <path d="M 45.00,27.00c-0.186,0.00-0.342-0.072-0.519-0.105 C 43.272,30.438, 39.951,33.00, 36.00,33.00L36.00,12.00 l-3.00,0.00 c0.00-1.656-1.341-3.00-3.00-3.00L18.00,9.00 C 16.344,9.00, 15.00,10.344, 15.00,12.00L12.00,12.00 l0.00,18.00 l0.00,3.00 l0.00,3.00 c0.00,1.659, 1.344,3.00, 3.00,3.00c0.00-1.659, 1.344-3.00, 3.00-3.00l3.00,0.00 c 1.656,0.00, 3.00,1.341, 3.00,3.00l0.00,3.00 c0.00,1.659-1.344,3.00-3.00,3.00L18.00,45.00 c-1.656,0.00-3.00-1.341-3.00-3.00c-3.312,0.00-6.00-2.688-6.00-6.00l0.00,-3.534 C 6.429,31.548, 4.404,29.49, 3.519,26.895C 3.345,26.928, 3.186,27.00, 3.00,27.00C 1.344,27.00,0.00,25.656,0.00,24.00s 1.344-3.00, 3.00-3.00c 0.177,0.00, 0.33,0.072, 0.501,0.102 C 4.389,18.516, 6.423,16.467, 9.00,15.552L9.00,12.00 c0.00-4.971, 4.029-9.00, 9.00-9.00l12.00,0.00 c 4.971,0.00, 9.00,4.029, 9.00,9.00l0.00,3.552 c 2.577,0.918, 4.608,2.967, 5.502,5.55 C 44.67,21.072, 44.82,21.00, 45.00,21.00c 1.659,0.00, 3.00,1.344, 3.00,3.00S 46.659,27.00, 45.00,27.00z M 9.00,21.00L6.00,21.00 l0.00,6.00 l3.00,0.00 L9.00,21.00 z M 42.00,21.00l-3.00,0.00 l0.00,6.00 l3.00,0.00 L42.00,21.00 z" ></path></svg>