<?xml version="1.0" encoding="utf-8"?> <!-- Generator: IcoMoon.io --> <!DOCTYPE svg PUBLIC "-//W3C//DTD SVG 1.1//EN" "http://www.w3.org/Graphics/SVG/1.1/DTD/svg11.dtd"> <svg version="1.1" id="Layer_1" xmlns="http://www.w3.org/2000/svg" xmlns:xlink="http://www.w3.org/1999/xlink" x="0px" y="0px" width="48px" height="48px" viewBox="0 0 48 48" enable-background="new 0 0 16 16" xml:space="preserve" fill="#000000"> <path d="M 39.00,3.00l6.00,0.00 l0.00,13.017 l-6.00-6.858L39.00,3.00 z M 42.00,24.00L 24.00,3.432L 6.00,24.00L0.00,24.00 l 21.00-24.00l6.00,0.00 l 21.00,24.00L42.00,24.00 z M 42.00,27.876L42.00,48.00 l-12.00,0.00 l0.00,-15.00 c0.00-1.659-1.341-3.00-3.00-3.00L21.00,30.00 c-1.656,0.00-3.00,1.341-3.00,3.00l0.00,15.00 L6.00,48.00 L6.00,27.873 l 18.00-19.89L 42.00,27.876z" ></path></svg>