<?xml version="1.0" encoding="utf-8"?> <!-- Generator: IcoMoon.io --> <!DOCTYPE svg PUBLIC "-//W3C//DTD SVG 1.1//EN" "http://www.w3.org/Graphics/SVG/1.1/DTD/svg11.dtd"> <svg version="1.1" id="Layer_1" xmlns="http://www.w3.org/2000/svg" xmlns:xlink="http://www.w3.org/1999/xlink" x="0px" y="0px" width="48px" height="48px" viewBox="0 0 48 48" enable-background="new 0 0 16 16" xml:space="preserve" fill="#000000"> <path d="M 45.00,24.00l-6.00,0.00 l0.00,21.00 c0.00,1.659-1.341,3.00-3.00,3.00l-6.00,0.00 l0.00,0.00l0.00,-18.00 c0.00-1.659-1.341-3.00-3.00-3.00L21.00,27.00 c-1.656,0.00-3.00,1.341-3.00,3.00l0.00,18.00 l0.00,0.00L12.00,48.00 c-1.656,0.00-3.00-1.341-3.00-3.00L9.00,24.00 L3.00,24.00 L0.00,21.00l 24.00-21.00l 24.00,21.00L 45.00,24.00z" ></path></svg>