<?xml version="1.0" encoding="utf-8"?> <!-- Generator: IcoMoon.io --> <!DOCTYPE svg PUBLIC "-//W3C//DTD SVG 1.1//EN" "http://www.w3.org/Graphics/SVG/1.1/DTD/svg11.dtd"> <svg version="1.1" id="Layer_1" xmlns="http://www.w3.org/2000/svg" xmlns:xlink="http://www.w3.org/1999/xlink" x="0px" y="0px" width="48px" height="48px" viewBox="0 0 48 48" enable-background="new 0 0 16 16" xml:space="preserve" fill="#000000"> <path d="M 48.00,24.00c0.00-13.254-10.746-24.00-24.00-24.00S0.00,10.746,0.00,24.00s 10.746,24.00, 24.00,24.00l3.00,0.00 c 1.653,0.00, 3.00-1.347, 3.00-3.00s-1.347-3.00-3.00-3.00L24.00,42.00 c-9.936,0.00-18.00-8.058-18.00-18.00s 8.064-18.00, 18.00-18.00 c 9.942,0.00, 18.00,8.058, 18.00,18.00l0.00,9.00 c0.00,1.653-1.347,3.00-3.00,3.00s-3.00-1.347-3.00-3.00L36.00,24.00 c0.00-6.624-5.379-12.00-12.00-12.00C 17.376,12.00, 12.00,17.376, 12.00,24.00c0.00,6.621, 5.376,12.00, 12.00,12.00 c 2.25,0.00, 4.335-0.657, 6.129-1.734C 30.75,38.625, 34.464,42.00, 39.00,42.00c 4.968,0.00, 9.00-4.032, 9.00-9.00L48.00,24.00 z M 24.00,30.00c-3.318,0.00-6.00-2.685-6.00-6.00 c0.00-3.318, 2.682-6.00, 6.00-6.00c 3.315,0.00, 6.00,2.682, 6.00,6.00C 30.00,27.315, 27.315,30.00, 24.00,30.00z" ></path></svg>