<?xml version="1.0" encoding="utf-8"?> <!-- Generator: IcoMoon.io --> <!DOCTYPE svg PUBLIC "-//W3C//DTD SVG 1.1//EN" "http://www.w3.org/Graphics/SVG/1.1/DTD/svg11.dtd"> <svg version="1.1" id="Layer_1" xmlns="http://www.w3.org/2000/svg" xmlns:xlink="http://www.w3.org/1999/xlink" x="0px" y="0px" width="48px" height="48px" viewBox="0 0 48 48" enable-background="new 0 0 16 16" xml:space="preserve" fill="#000000"> <path d="M 42.00,48.00l-3.00,0.00 l0.00,-6.00 l-6.00,0.00 l0.00,-6.00 L27.00,36.00 l0.00,-3.00 L21.00,33.00 l0.00,-3.00 L21.00,28.734 C 19.161,29.541, 17.136,30.00, 15.00,30.00 c-8.283,0.00-15.00-6.714-15.00-15.00s 6.717-15.00, 15.00-15.00s 15.00,6.714, 15.00,15.00c0.00,2.136-0.462,4.161-1.266,6.00L33.00,21.00 l0.00,6.00 l 15.00,12.00l0.00,9.00 L42.00,48.00 z M 12.00,6.00C 8.688,6.00, 6.00,8.688, 6.00,12.00s 2.688,6.00, 6.00,6.00 s 6.00-2.688, 6.00-6.00S 15.312,6.00, 12.00,6.00z" ></path></svg>