<?xml version="1.0" encoding="utf-8"?> <!-- Generator: IcoMoon.io --> <!DOCTYPE svg PUBLIC "-//W3C//DTD SVG 1.1//EN" "http://www.w3.org/Graphics/SVG/1.1/DTD/svg11.dtd"> <svg version="1.1" id="Layer_1" xmlns="http://www.w3.org/2000/svg" xmlns:xlink="http://www.w3.org/1999/xlink" x="0px" y="0px" width="48px" height="48px" viewBox="0 0 48 48" enable-background="new 0 0 16 16" xml:space="preserve" fill="#000000"> <path d="M 39.00,48.00l-3.00,0.00 l0.00,-18.00 c 1.659,0.00, 3.00-1.341, 3.00-3.00L39.00,0.00 c 4.971,0.00, 9.00,4.029, 9.00,9.00l0.00,30.00 C 48.00,43.968, 43.971,48.00, 39.00,48.00z M 33.00,30.00l0.00,18.00 L15.00,48.00 l0.00,-18.00 c 1.659,0.00, 3.00-1.341, 3.00-3.00L18.00,0.00 l12.00,0.00 l0.00,27.00 C 30.00,28.659, 31.341,30.00, 33.00,30.00z M 12.00,30.00l0.00,18.00 L9.00,48.00 c-4.971,0.00-9.00-4.032-9.00-9.00L0.00,9.00 c0.00-4.971, 4.029-9.00, 9.00-9.00l0.00,27.00 C 9.00,28.659, 10.341,30.00, 12.00,30.00z" ></path></svg>