<?xml version="1.0" encoding="utf-8"?> <!-- Generator: IcoMoon.io --> <!DOCTYPE svg PUBLIC "-//W3C//DTD SVG 1.1//EN" "http://www.w3.org/Graphics/SVG/1.1/DTD/svg11.dtd"> <svg version="1.1" id="Layer_1" xmlns="http://www.w3.org/2000/svg" xmlns:xlink="http://www.w3.org/1999/xlink" x="0px" y="0px" width="48px" height="48px" viewBox="0 0 48 48" enable-background="new 0 0 16 16" xml:space="preserve" fill="#000000"> <path d="M 9.00,48.00l30.00,0.00 c 4.968,0.00, 9.00-4.029, 9.00-9.00L48.00,9.00 c0.00-4.971-4.032-9.00-9.00-9.00L9.00,0.00 C 4.029,0.00,0.00,4.029,0.00,9.00l0.00,30.00 C0.00,43.971, 4.029,48.00, 9.00,48.00z M 6.00,39.00L6.00,18.00 l24.00,0.00 l0.00,24.00 L9.00,42.00 C 7.344,42.00, 6.00,40.659, 6.00,39.00z M 39.00,42.00l-6.00,0.00 L33.00,18.00 l9.00,0.00 l0.00,21.00 C 42.00,40.659, 40.659,42.00, 39.00,42.00 z M 9.00,6.00l30.00,0.00 c 1.659,0.00, 3.00,1.344, 3.00,3.00l0.00,6.00 l-9.00,0.00 l-3.00,0.00 L6.00,15.00 L6.00,9.00 C 6.00,7.344, 7.344,6.00, 9.00,6.00z" ></path></svg>