<?xml version="1.0" encoding="utf-8"?> <!-- Generator: IcoMoon.io --> <!DOCTYPE svg PUBLIC "-//W3C//DTD SVG 1.1//EN" "http://www.w3.org/Graphics/SVG/1.1/DTD/svg11.dtd"> <svg version="1.1" id="Layer_1" xmlns="http://www.w3.org/2000/svg" xmlns:xlink="http://www.w3.org/1999/xlink" x="0px" y="0px" width="48px" height="48px" viewBox="0 0 48 48" enable-background="new 0 0 16 16" xml:space="preserve" fill="#000000"> <path d="M 39.00,48.00L9.00,48.00 c-1.656,0.00-3.00-1.341-3.00-3.00L6.00,24.00 c0.00-1.656, 1.344-3.00, 3.00-3.00L9.00,15.00 c0.00-8.286, 6.717-15.00, 15.00-15.00c 8.286,0.00, 15.00,6.714, 15.00,15.00l0.00,6.00 c 1.659,0.00, 3.00,1.344, 3.00,3.00l0.00,21.00 C 42.00,46.659, 40.659,48.00, 39.00,48.00z M 33.00,15.00c0.00-4.971-4.032-9.00-9.00-9.00 C 19.029,6.00, 15.00,10.029, 15.00,15.00l0.00,6.00 l18.00,0.00 L33.00,15.00 z M 36.00,27.00L12.00,27.00 l0.00,15.00 l24.00,0.00 L36.00,27.00 z" ></path></svg>