<?xml version="1.0" encoding="utf-8"?> <!-- Generator: IcoMoon.io --> <!DOCTYPE svg PUBLIC "-//W3C//DTD SVG 1.1//EN" "http://www.w3.org/Graphics/SVG/1.1/DTD/svg11.dtd"> <svg version="1.1" id="Layer_1" xmlns="http://www.w3.org/2000/svg" xmlns:xlink="http://www.w3.org/1999/xlink" x="0px" y="0px" width="48px" height="48px" viewBox="0 0 48 48" enable-background="new 0 0 16 16" xml:space="preserve" fill="#000000"> <path d="M 21.879,23.121C 22.464,23.706, 23.232,24.00, 24.00,24.00s 1.536-0.294, 2.121-0.879l 6.00-6.00 c 0.855-0.855, 1.113-2.148, 0.651-3.27C 32.31,12.732, 31.212,12.00, 30.00,12.00L27.003,12.00 L27.003,3.00 c0.00-1.659-1.341-3.00-3.00-3.00c-1.656,0.00-3.00,1.341-3.00,3.00l0.00,9.00 L18.00,12.00 C 16.788,12.00, 15.69,12.732, 15.228,13.851c-0.462,1.122-0.207,2.415, 0.651,3.27L 21.879,23.121z M 39.00,12.00l-0.54,0.00 c 0.699,1.983, 0.702,4.092, 0.027,6.00 L39.00,18.00 c 0.732,0.00, 1.383,0.297, 1.905,0.732L 24.00,30.00L 7.098,18.732C 7.62,18.297, 8.265,18.00, 9.00,18.00l0.51,0.00 C 8.835,16.092, 8.835,13.983, 9.537,12.00L9.00,12.00 C 4.029,12.00,0.00,16.032,0.00,21.00l0.00,18.00 c0.00,4.971, 4.029,9.00, 9.00,9.00l30.00,0.00 c 4.971,0.00, 9.00-4.029, 9.00-9.00L48.00,21.00 C 48.00,16.032, 43.971,12.00, 39.00,12.00z M 42.00,36.00l-9.00-3.00l 8.121,8.121 C 40.578,41.664, 39.828,42.00, 39.00,42.00L9.00,42.00 c-0.828,0.00-1.578-0.336-2.121-0.879L 15.00,33.00l-9.00,3.00L6.00,24.00 l 18.00,12.00l 18.00-12.00L42.00,36.00 z" ></path></svg>