<?xml version="1.0" encoding="utf-8"?> <!-- Generator: IcoMoon.io --> <!DOCTYPE svg PUBLIC "-//W3C//DTD SVG 1.1//EN" "http://www.w3.org/Graphics/SVG/1.1/DTD/svg11.dtd"> <svg version="1.1" id="Layer_1" xmlns="http://www.w3.org/2000/svg" xmlns:xlink="http://www.w3.org/1999/xlink" x="0px" y="0px" width="48px" height="48px" viewBox="0 0 48 48" enable-background="new 0 0 16 16" xml:space="preserve" fill="#000000"> <path d="M 18.00,12.00l3.003,0.00 l0.00,9.00 c0.00,1.659, 1.344,3.00, 3.00,3.00c 1.659,0.00, 3.00-1.341, 3.00-3.00L27.003,12.00 L30.00,12.00 c 1.212,0.00, 2.31-0.732, 2.772-1.851c 0.462-1.122, 0.204-2.415-0.651-3.27l-6.00-6.00C 25.536,0.294, 24.768,0.00, 24.00,0.00S 22.464,0.294, 21.879,0.879l-6.00,6.00 c-0.858,0.855-1.113,2.148-0.651,3.27C 15.69,11.268, 16.788,12.00, 18.00,12.00z M 39.00,12.00l-0.543,0.00 c-0.054,0.147-0.084,0.294-0.144,0.438 C 37.314,14.853, 36.00,16.656, 33.00,17.49L33.00,18.00 l6.00,0.00 c 0.732,0.00, 1.383,0.297, 1.905,0.732L 24.00,30.00L 7.098,18.732C 7.62,18.297, 8.265,18.00, 9.00,18.00l6.00,0.00 L15.00,17.49 C 12.00,16.659, 10.683,14.856, 9.684,12.441C 9.624,12.30, 9.588,12.147, 9.537,12.00L9.00,12.00 C 4.029,12.00,0.00,16.032,0.00,21.00l0.00,18.00 c0.00,4.971, 4.029,9.00, 9.00,9.00l30.00,0.00 c 4.971,0.00, 9.00-4.029, 9.00-9.00L48.00,21.00 C 48.00,16.032, 43.971,12.00, 39.00,12.00z M 42.00,36.00l-9.00-3.00l 8.121,8.121C 40.578,41.664, 39.828,42.00, 39.00,42.00L9.00,42.00 c-0.828,0.00-1.578-0.336-2.121-0.879L 15.00,33.00l-9.00,3.00L6.00,24.00 l 18.00,12.00l 18.00-12.00L42.00,36.00 z" ></path></svg>