<?xml version="1.0" encoding="utf-8"?> <!-- Generator: IcoMoon.io --> <!DOCTYPE svg PUBLIC "-//W3C//DTD SVG 1.1//EN" "http://www.w3.org/Graphics/SVG/1.1/DTD/svg11.dtd"> <svg version="1.1" id="Layer_1" xmlns="http://www.w3.org/2000/svg" xmlns:xlink="http://www.w3.org/1999/xlink" x="0px" y="0px" width="48px" height="48px" viewBox="0 0 48 48" enable-background="new 0 0 16 16" xml:space="preserve" fill="#000000"> <path d="M 27.00,25.50C 27.00,26.328, 27.675,27.00, 28.50,27.00L36.00,27.00 c0.00,3.915-2.514,7.209-6.00,8.448L30.00,31.50 c0.00-0.825-0.675-1.50-1.50-1.50S 27.00,30.675, 27.00,31.50L27.00,42.00 c0.00,1.659-1.344,3.00-3.00,3.00s-3.00-1.341-3.00-3.00l0.00,-10.50 C 21.00,30.675, 20.328,30.00, 19.50,30.00 C 18.672,30.00, 18.00,30.675, 18.00,31.50l0.00,3.948 C 14.511,34.209, 12.00,30.915, 12.00,27.00l7.50,0.00 C 20.328,27.00, 21.00,26.328, 21.00,25.50C 21.00,24.672, 20.328,24.00, 19.50,24.00L12.00,24.00 L12.00,21.00 l4.50,0.00 C 17.328,21.00, 18.00,20.328, 18.00,19.50C 18.00,18.672, 17.328,18.00, 16.50,18.00L12.00,18.00 L12.00,15.00 l7.50,0.00 C 20.328,15.00, 21.00,14.328, 21.00,13.50C 21.00,12.672, 20.328,12.00, 19.50,12.00L12.00,12.00 l0.00,0.00 c0.00-3.912, 2.511-7.209, 6.00-8.448L18.00,7.50 C 18.00,8.328, 18.672,9.00, 19.50,9.00C 20.328,9.00, 21.00,8.328, 21.00,7.50L21.00,3.00 l6.00,0.00 l0.00,4.50 C 27.00,8.328, 27.675,9.00, 28.50,9.00S 30.00,8.328, 30.00,7.50 L30.00,3.552 C 33.486,4.791, 36.00,8.088, 36.00,12.00l0.00,0.00L28.50,12.00 C 27.675,12.00, 27.00,12.672, 27.00,13.50C 27.00,14.328, 27.675,15.00, 28.50,15.00L36.00,15.00 l0.00,3.00 l-4.50,0.00 C 30.675,18.00, 30.00,18.672, 30.00,19.50 C 30.00,20.328, 30.675,21.00, 31.50,21.00L36.00,21.00 l0.00,3.00 L28.50,24.00 C 27.675,24.00, 27.00,24.672, 27.00,25.50z M 25.50,18.00l-3.00,0.00 C 21.672,18.00, 21.00,18.672, 21.00,19.50C 21.00,20.328, 21.672,21.00, 22.50,21.00l3.00,0.00 C 26.328,21.00, 27.00,20.328, 27.00,19.50C 27.00,18.672, 26.328,18.00, 25.50,18.00z" ></path></svg>