<?xml version="1.0" encoding="utf-8"?> <!-- Generator: IcoMoon.io --> <!DOCTYPE svg PUBLIC "-//W3C//DTD SVG 1.1//EN" "http://www.w3.org/Graphics/SVG/1.1/DTD/svg11.dtd"> <svg version="1.1" id="Layer_1" xmlns="http://www.w3.org/2000/svg" xmlns:xlink="http://www.w3.org/1999/xlink" x="0px" y="0px" width="48px" height="48px" viewBox="0 0 48 48" enable-background="new 0 0 16 16" xml:space="preserve" fill="#000000"> <path d="M 24.00,48.00c-9.939,0.00-18.00-8.058-18.00-18.00c0.00-1.659, 1.344-3.00, 3.00-3.00s 3.00,1.341, 3.00,3.00 c0.00,6.627, 5.373,12.00, 12.00,12.00s 12.00-5.373, 12.00-12.00c0.00-1.659, 1.341-3.00, 3.00-3.00s 3.00,1.341, 3.00,3.00C 42.00,39.942, 33.939,48.00, 24.00,48.00z M 28.50,6.00C 27.675,6.00, 27.00,6.672, 27.00,7.50 C 27.00,8.328, 27.675,9.00, 28.50,9.00L33.00,9.00 l0.00,3.00 L28.50,12.00 C 27.675,12.00, 27.00,12.672, 27.00,13.50C 27.00,14.328, 27.675,15.00, 28.50,15.00L33.00,15.00 l0.00,3.00 L28.50,18.00 C 27.675,18.00, 27.00,18.672, 27.00,19.50 C 27.00,20.328, 27.675,21.00, 28.50,21.00L33.00,21.00 l0.00,3.00 L28.50,24.00 C 27.675,24.00, 27.00,24.672, 27.00,25.50C 27.00,26.328, 27.675,27.00, 28.50,27.00L33.00,27.00 l0.00,3.00 c0.00,4.968-4.032,9.00-9.00,9.00c-4.971,0.00-9.00-4.032-9.00-9.00L15.00,27.00 l4.50,0.00 C 20.328,27.00, 21.00,26.328, 21.00,25.50C 21.00,24.672, 20.328,24.00, 19.50,24.00L15.00,24.00 L15.00,21.00 l4.50,0.00 C 20.328,21.00, 21.00,20.328, 21.00,19.50C 21.00,18.672, 20.328,18.00, 19.50,18.00L15.00,18.00 L15.00,15.00 l4.50,0.00 C 20.328,15.00, 21.00,14.328, 21.00,13.50 C 21.00,12.672, 20.328,12.00, 19.50,12.00L15.00,12.00 L15.00,9.00 l4.50,0.00 C 20.328,9.00, 21.00,8.328, 21.00,7.50C 21.00,6.672, 20.328,6.00, 19.50,6.00L15.552,6.00 C 16.791,2.511, 20.088,0.00, 24.00,0.00 c 3.915,0.00, 7.209,2.511, 8.448,6.00L28.50,6.00 z" ></path></svg>