<?xml version="1.0" encoding="utf-8"?> <!-- Generator: IcoMoon.io --> <!DOCTYPE svg PUBLIC "-//W3C//DTD SVG 1.1//EN" "http://www.w3.org/Graphics/SVG/1.1/DTD/svg11.dtd"> <svg version="1.1" id="Layer_1" xmlns="http://www.w3.org/2000/svg" xmlns:xlink="http://www.w3.org/1999/xlink" x="0px" y="0px" width="48px" height="48px" viewBox="0 0 48 48" enable-background="new 0 0 16 16" xml:space="preserve" fill="#000000"> <path d="M 39.00,48.00L9.00,48.00 c-4.971,0.00-9.00-4.032-9.00-9.00L0.00,9.00 c0.00-4.971, 4.029-9.00, 9.00-9.00l30.00,0.00 c 4.971,0.00, 9.00,4.029, 9.00,9.00l0.00,30.00 C 48.00,43.968, 43.971,48.00, 39.00,48.00z M 42.00,9.00c0.00-1.656-1.341-3.00-3.00-3.00L9.00,6.00 C 7.341,6.00, 6.00,7.344, 6.00,9.00l0.00,30.00 c0.00,1.659, 1.341,3.00, 3.00,3.00l30.00,0.00 c 1.659,0.00, 3.00-1.341, 3.00-3.00L42.00,9.00 z M 33.00,33.00l0.00,4.50 c0.00,0.828-0.672,1.50-1.50,1.50S 30.00,38.328, 30.00,37.50L30.00,33.00 c-1.659,0.00-3.00-1.341-3.00-3.00L27.00,27.00 c0.00-1.656, 1.341-3.00, 3.00-3.00 L30.00,10.50 C 30.00,9.672, 30.672,9.00, 31.50,9.00S 33.00,9.672, 33.00,10.50L33.00,24.00 c 1.659,0.00, 3.00,1.344, 3.00,3.00l0.00,3.00 C 36.00,31.659, 34.659,33.00, 33.00,33.00z M 18.00,24.00l0.00,13.50 C 18.00,38.328, 17.328,39.00, 16.50,39.00S 15.00,38.328, 15.00,37.50L15.00,24.00 C 13.341,24.00, 12.00,22.656, 12.00,21.00L12.00,18.00 c0.00-1.656, 1.341-3.00, 3.00-3.00L15.00,10.50 C 15.00,9.672, 15.672,9.00, 16.50,9.00S 18.00,9.672, 18.00,10.50L18.00,15.00 c 1.659,0.00, 3.00,1.344, 3.00,3.00l0.00,3.00 C 21.00,22.656, 19.659,24.00, 18.00,24.00z" ></path></svg>