<?xml version="1.0" encoding="utf-8"?> <!-- Generator: IcoMoon.io --> <!DOCTYPE svg PUBLIC "-//W3C//DTD SVG 1.1//EN" "http://www.w3.org/Graphics/SVG/1.1/DTD/svg11.dtd"> <svg version="1.1" id="Layer_1" xmlns="http://www.w3.org/2000/svg" xmlns:xlink="http://www.w3.org/1999/xlink" x="0px" y="0px" width="48px" height="48px" viewBox="0 0 48 48" enable-background="new 0 0 16 16" xml:space="preserve" fill="#000000"> <path d="M 39.00,48.00L9.00,48.00 c-4.971,0.00-9.00-4.029-9.00-9.00L0.00,0.00 l36.00,0.00 l0.00,3.00 l6.00,0.00 l0.00,0.00l0.00,3.00 l3.00,0.00 l3.00,0.00 l0.00,33.00 C 48.00,43.971, 43.971,48.00, 39.00,48.00z M 30.00,6.00L6.00,6.00 l0.00,33.00 c0.00,1.659, 1.341,3.00, 3.00,3.00l21.00,0.00 L30.00,6.00 z M 45.00,9.00l-3.00,0.00 l0.00,28.50 c0.00,0.828-0.672,1.50-1.50,1.50S 39.00,38.328, 39.00,37.50L39.00,6.00 l-3.00,0.00 l0.00,31.50 c0.00,2.484, 2.016,4.50, 4.50,4.50s 4.50-2.016, 4.50-4.50L45.00,9.00 z" ></path></svg>