<?xml version="1.0" encoding="utf-8"?> <!-- Generator: IcoMoon.io --> <!DOCTYPE svg PUBLIC "-//W3C//DTD SVG 1.1//EN" "http://www.w3.org/Graphics/SVG/1.1/DTD/svg11.dtd"> <svg version="1.1" id="Layer_1" xmlns="http://www.w3.org/2000/svg" xmlns:xlink="http://www.w3.org/1999/xlink" x="0px" y="0px" width="48px" height="48px" viewBox="0 0 48 48" enable-background="new 0 0 16 16" xml:space="preserve" fill="#000000"> <path d="M 7.584,38.646 C 6.609,38.121 6.00,37.107 6.00,36.00 L 6.00,12.00 C 6.00,10.893 6.612,9.876 7.587,9.354 C 8.562,8.832 9.744,8.892 10.665,9.504 L 28.665,21.504 C 29.499,22.062 30.00,22.995 30.00,24.00 C 30.00,25.002 29.499,25.938 28.662,26.496 L 10.662,38.496 C 9.744,39.111 8.559,39.168 7.584,38.646 Z M 33.00,39.00 C 31.341,39.00 30.00,37.659 30.00,36.00 L 30.00,24.00 L 30.00,12.00 C 30.00,10.341 31.341,9.00 33.00,9.00 L 39.00,9.00 C 40.659,9.00 42.00,10.341 42.00,12.00 L 42.00,36.00 C 42.00,37.659 40.659,39.00 39.00,39.00 L 33.00,39.00 Z" ></path></svg>