<?xml version="1.0" encoding="utf-8"?> <!-- Generator: IcoMoon.io --> <!DOCTYPE svg PUBLIC "-//W3C//DTD SVG 1.1//EN" "http://www.w3.org/Graphics/SVG/1.1/DTD/svg11.dtd"> <svg version="1.1" id="Layer_1" xmlns="http://www.w3.org/2000/svg" xmlns:xlink="http://www.w3.org/1999/xlink" x="0px" y="0px" width="48px" height="48px" viewBox="0 0 48 48" enable-background="new 0 0 16 16" xml:space="preserve" fill="#000000"> <path d="M 24.00,48.00c-13.254,0.00-24.00-10.746-24.00-24.00s 10.746-24.00, 24.00-24.00c 13.254,0.00, 24.00,10.746, 24.00,24.00 S 37.254,48.00, 24.00,48.00z M 24.00,42.00c 3.885,0.00, 7.461-1.26, 10.404-3.354l-25.05-25.05C 7.26,16.539, 6.00,20.115, 6.00,24.00C 6.00,33.939, 14.061,42.00, 24.00,42.00z M 24.00,6.00 C 20.115,6.00, 16.539,7.26, 13.596,9.354l 25.05,25.05C 40.74,31.461, 42.00,27.888, 42.00,24.00C 42.00,14.061, 33.939,6.00, 24.00,6.00z" ></path></svg>