<?xml version="1.0" encoding="utf-8"?> <!-- Generator: IcoMoon.io --> <!DOCTYPE svg PUBLIC "-//W3C//DTD SVG 1.1//EN" "http://www.w3.org/Graphics/SVG/1.1/DTD/svg11.dtd"> <svg version="1.1" id="Layer_1" xmlns="http://www.w3.org/2000/svg" xmlns:xlink="http://www.w3.org/1999/xlink" x="0px" y="0px" width="48px" height="48px" viewBox="0 0 48 48" enable-background="new 0 0 16 16" xml:space="preserve" fill="#000000"> <path d="M 42.00,36.00 L 42.00,28.497 L 48.00,23.997 L 48.00,36.00 C 48.00,40.971 43.971,45.00 39.00,45.00 L 9.00,45.00 C 4.032,45.00 0.00,40.971 0.00,36.00 L 0.00,21.00 C 0.00,16.032 4.032,12.00 9.00,12.00 L 11.283,12.00 C 9.75,13.908 8.517,16.062 7.62,18.378 C 6.672,18.882 6.00,19.851 6.00,21.00 L 6.00,36.00 C 6.00,37.659 7.344,39.00 9.00,39.00 L 39.00,39.00 C 40.659,39.00 42.00,37.659 42.00,36.00 Z M 30.00,21.00 C 22.167,21.00 15.522,26.013 13.047,33.00 C 12.381,31.122 12.00,29.106 12.00,27.00 C 12.00,17.061 20.061,9.00 30.00,9.00 L 30.00,6.00 C 30.00,4.863 30.642,3.825 31.659,3.315 C 32.082,3.105 32.544,3.00 33.00,3.00 C 33.636,3.00 34.272,3.204 34.80,3.60 L 46.80,12.60 C 47.556,13.167 48.00,14.058 48.00,15.00 C 48.00,15.945 47.556,16.833 46.80,17.40 L 34.80,26.40 C 34.272,26.796 33.636,27.00 33.00,27.00 C 32.544,27.00 32.082,26.895 31.659,26.685 C 30.642,26.175 30.00,25.137 30.00,24.00 L 30.00,21.00 Z" ></path></svg>