<?xml version="1.0" encoding="utf-8"?> <!-- Generator: IcoMoon.io --> <!DOCTYPE svg PUBLIC "-//W3C//DTD SVG 1.1//EN" "http://www.w3.org/Graphics/SVG/1.1/DTD/svg11.dtd"> <svg version="1.1" id="Layer_1" xmlns="http://www.w3.org/2000/svg" xmlns:xlink="http://www.w3.org/1999/xlink" x="0px" y="0px" width="48px" height="48px" viewBox="0 0 48 48" enable-background="new 0 0 16 16" xml:space="preserve" fill="#000000"> <path d="M 39.00,0.00 C 43.971,0.00 48.00,4.029 48.00,9.00 L 48.00,39.00 C 48.00,43.971 43.971,48.00 39.00,48.00 L 9.00,48.00 C 4.029,48.00 0.00,43.971 0.00,39.00 L 0.00,33.723 L 2.637,36.36 C 3.60,37.323 4.752,38.01 6.00,38.451 L 6.00,39.00 C 6.00,40.659 7.344,42.00 9.00,42.00 L 39.00,42.00 C 40.659,42.00 42.00,40.659 42.00,39.00 L 42.00,9.00 C 42.00,7.344 40.659,6.00 39.00,6.00 L 9.00,6.00 C 7.344,6.00 6.00,7.344 6.00,9.00 L 6.00,9.546 C 4.755,9.987 3.603,10.671 2.637,11.634 L 0.00,14.271 L 0.00,9.00 C 0.00,4.029 4.029,0.00 9.00,0.00 L 39.00,0.00 ZM 10.149,15.225 C 11.268,15.687 12.00,16.785 12.00,17.997 L 12.00,21.00 L 21.00,21.00 C 22.659,21.00 24.00,22.344 24.00,24.00 C 24.00,25.659 22.659,27.00 21.00,27.00 L 12.00,27.00 L 12.00,29.997 C 12.00,31.209 11.268,32.307 10.149,32.769 C 9.027,33.231 7.737,32.973 6.879,32.118 L 0.879,26.118 C 0.294,25.533 0.00,24.765 0.00,23.997 C 0.00,23.229 0.294,22.461 0.879,21.876 L 6.879,15.876 C 7.737,15.018 9.027,14.763 10.149,15.225 Z" ></path></svg>