<?xml version="1.0" encoding="utf-8"?> <!-- Generator: IcoMoon.io --> <!DOCTYPE svg PUBLIC "-//W3C//DTD SVG 1.1//EN" "http://www.w3.org/Graphics/SVG/1.1/DTD/svg11.dtd"> <svg version="1.1" id="Layer_1" xmlns="http://www.w3.org/2000/svg" xmlns:xlink="http://www.w3.org/1999/xlink" x="0px" y="0px" width="48px" height="48px" viewBox="0 0 48 48" enable-background="new 0 0 16 16" xml:space="preserve" fill="#000000"> <path d="M 39.00,48.00L9.00,48.00 c-4.968,0.00-9.00-4.029-9.00-9.00L0.00,9.00 c0.00-4.971, 4.032-9.00, 9.00-9.00l13.617,0.00 C 21.582,1.788, 21.00,3.837, 21.00,6.00L9.00,6.00 C 7.341,6.00, 6.00,7.344, 6.00,9.00l0.00,30.00 c0.00,1.659, 1.341,3.00, 3.00,3.00l30.00,0.00 c 1.659,0.00, 3.00-1.341, 3.00-3.00l0.00,-6.75 l 6.00-4.50L48.00,39.00 C 48.00,43.971, 43.971,48.00, 39.00,48.00z M 34.80,26.40C 34.272,26.796, 33.636,27.00, 33.00,27.00c-0.456,0.00-0.918-0.105-1.341-0.315C 30.642,26.175, 30.00,25.137, 30.00,24.00 L30.00,21.126 L30.00,21.00 c-9.513,0.00-17.538,6.327-20.118,15.00C 9.312,34.095, 9.00,32.085, 9.00,30.00c0.00-11.598, 9.402-21.00, 21.00-21.00L30.00,6.00 c0.00-1.137, 0.642-2.175, 1.659-2.685 C 32.082,3.105, 32.544,3.00, 33.00,3.00c 0.636,0.00, 1.272,0.204, 1.80,0.60l 12.00,9.00C 47.556,13.167, 48.00,14.055, 48.00,15.00s-0.444,1.833-1.20,2.40L 34.80,26.40z" ></path></svg>