<?xml version="1.0" encoding="utf-8"?> <!-- Generator: IcoMoon.io --> <!DOCTYPE svg PUBLIC "-//W3C//DTD SVG 1.1//EN" "http://www.w3.org/Graphics/SVG/1.1/DTD/svg11.dtd"> <svg version="1.1" id="Layer_1" xmlns="http://www.w3.org/2000/svg" xmlns:xlink="http://www.w3.org/1999/xlink" x="0px" y="0px" width="48px" height="48px" viewBox="0 0 48 48" enable-background="new 0 0 16 16" xml:space="preserve" fill="#000000"> <path d="M 9.00,48.00 C 4.029,48.00 0.00,43.971 0.00,39.00 L 0.00,27.75 L 6.00,32.25 L 6.00,39.00 C 6.00,40.659 7.341,42.00 9.00,42.00 L 39.00,42.00 C 40.659,42.00 42.00,40.659 42.00,39.00 L 42.00,9.00 C 42.00,7.344 40.659,6.00 39.00,6.00 L 27.00,6.00 C 27.00,3.837 26.415,1.788 25.383,0.00 L 39.00,0.00 C 43.968,0.00 48.00,4.032 48.00,9.00 L 48.00,39.00 C 48.00,43.971 43.968,48.00 39.00,48.00 L 9.00,48.00 Z M 13.20,26.40 L 1.20,17.40 C 0.444,16.833 0.00,15.942 0.00,15.00 C 0.00,14.058 0.444,13.167 1.20,12.60 L 13.20,3.60 C 13.728,3.204 14.364,3.00 15.00,3.00 C 15.456,3.00 15.918,3.105 16.341,3.315 C 17.358,3.825 18.00,4.863 18.00,6.00 L 18.00,9.00 C 29.598,9.00 39.00,18.402 39.00,30.00 C 39.00,32.085 38.685,34.098 38.118,36.00 C 35.538,27.327 27.51,21.00 18.00,21.00 L 18.00,21.129 L 18.00,24.00 C 18.00,25.137 17.358,26.175 16.341,26.685 C 15.918,26.895 15.456,27.00 15.00,27.00 C 14.364,27.00 13.728,26.796 13.20,26.40 Z" ></path></svg>