<?xml version="1.0" encoding="utf-8"?> <!-- Generator: IcoMoon.io --> <!DOCTYPE svg PUBLIC "-//W3C//DTD SVG 1.1//EN" "http://www.w3.org/Graphics/SVG/1.1/DTD/svg11.dtd"> <svg version="1.1" id="Layer_1" xmlns="http://www.w3.org/2000/svg" xmlns:xlink="http://www.w3.org/1999/xlink" x="0px" y="0px" width="48px" height="48px" viewBox="0 0 48 48" enable-background="new 0 0 16 16" xml:space="preserve" fill="#000000"> <path d="M 36.00,39.00l-6.00,0.00 c-1.659,0.00-3.00-1.341-3.00-3.00L27.00,12.00 c0.00-1.659, 1.341-3.00, 3.00-3.00l6.00,0.00 c 1.659,0.00, 3.00,1.341, 3.00,3.00l0.00,24.00 C 39.00,37.659, 37.659,39.00, 36.00,39.00z M 18.00,39.00L12.00,39.00 c-1.659,0.00-3.00-1.341-3.00-3.00L9.00,12.00 c0.00-1.659, 1.341-3.00, 3.00-3.00l6.00,0.00 c 1.659,0.00, 3.00,1.341, 3.00,3.00l0.00,24.00 C 21.00,37.659, 19.659,39.00, 18.00,39.00z" ></path></svg>