<?xml version="1.0" encoding="utf-8"?> <!-- Generator: IcoMoon.io --> <!DOCTYPE svg PUBLIC "-//W3C//DTD SVG 1.1//EN" "http://www.w3.org/Graphics/SVG/1.1/DTD/svg11.dtd"> <svg version="1.1" id="Layer_1" xmlns="http://www.w3.org/2000/svg" xmlns:xlink="http://www.w3.org/1999/xlink" x="0px" y="0px" width="48px" height="48px" viewBox="0 0 48 48" enable-background="new 0 0 16 16" xml:space="preserve" fill="#000000"> <path d="M 24.00,0.00C 14.061,0.00, 6.00,8.061, 6.00,18.00s 18.00,30.00, 18.00,30.00s 18.00-20.061, 18.00-30.00S 33.939,0.00, 24.00,0.00z M 24.00,30.00c-6.627,0.00-12.00-5.373-12.00-12.00s 5.373-12.00, 12.00-12.00s 12.00,5.373, 12.00,12.00S 30.627,30.00, 24.00,30.00z M 24.00,12.00C 20.688,12.00, 18.00,14.688, 18.00,18.00s 2.688,6.00, 6.00,6.00s 6.00-2.688, 6.00-6.00 S 27.312,12.00, 24.00,12.00z" ></path></svg>