<?xml version="1.0" encoding="utf-8"?> <!-- Generator: IcoMoon.io --> <!DOCTYPE svg PUBLIC "-//W3C//DTD SVG 1.1//EN" "http://www.w3.org/Graphics/SVG/1.1/DTD/svg11.dtd"> <svg version="1.1" id="Layer_1" xmlns="http://www.w3.org/2000/svg" xmlns:xlink="http://www.w3.org/1999/xlink" x="0px" y="0px" width="48px" height="48px" viewBox="0 0 48 48" enable-background="new 0 0 16 16" xml:space="preserve" fill="#000000"> <path d="M 36.00,44.763L36.00,42.00 c0.00-1.431-0.294-2.781-0.75-4.053 C 39.333,34.65, 42.00,29.661, 42.00,24.00c0.00-9.939-8.061-18.00-18.00-18.00S 6.00,14.061, 6.00,24.00c0.00,5.661, 2.667,10.65, 6.75,13.947C 12.294,39.219, 12.00,40.569, 12.00,42.00l0.00,2.763 C 4.833,40.611,0.00,32.877,0.00,24.00c0.00-13.254, 10.746-24.00, 24.00-24.00s 24.00,10.746, 24.00,24.00C 48.00,32.877, 43.167,40.611, 36.00,44.763z M 24.00,9.00c 8.286,0.00, 15.00,6.714, 15.00,15.00 c0.00,4.482-2.004,8.457-5.118,11.205c-1.164-1.686-2.763-3.027-4.614-3.936C 31.521,29.631, 33.00,26.997, 33.00,24.00c0.00-4.971-4.029-9.00-9.00-9.00 S 15.00,19.029, 15.00,24.00c0.00,2.997, 1.479,5.631, 3.732,7.269c-1.851,0.912-3.45,2.25-4.614,3.936C 11.004,32.457, 9.00,28.482, 9.00,24.00C 9.00,15.714, 15.714,9.00, 24.00,9.00z M 18.00,24.00c0.00-3.312, 2.688-6.00, 6.00-6.00s 6.00,2.688, 6.00,6.00s-2.688,6.00-6.00,6.00S 18.00,27.312, 18.00,24.00z M 24.00,33.00c 4.971,0.00, 9.00,4.029, 9.00,9.00l0.00,6.00 L15.00,48.00 l0.00,-6.00 C 15.00,37.029, 19.029,33.00, 24.00,33.00z" ></path></svg>