<?xml version="1.0" encoding="utf-8"?> <!-- Generator: IcoMoon.io --> <!DOCTYPE svg PUBLIC "-//W3C//DTD SVG 1.1//EN" "http://www.w3.org/Graphics/SVG/1.1/DTD/svg11.dtd"> <svg version="1.1" id="Layer_1" xmlns="http://www.w3.org/2000/svg" xmlns:xlink="http://www.w3.org/1999/xlink" x="0px" y="0px" width="48px" height="48px" viewBox="0 0 48 48" enable-background="new 0 0 16 16" xml:space="preserve" fill="#000000"> <path d="M 40.416,38.646c-0.975,0.522-2.16,0.465-3.078-0.15l-18.00-12.00C 18.501,25.938, 18.00,25.002, 18.00,24.00 c0.00-1.005, 0.501-1.938, 1.335-2.496l 18.00-12.00c 0.921-0.612, 2.103-0.672, 3.078-0.15S 42.00,10.893, 42.00,12.00l0.00,24.00 C 42.00,37.107, 41.391,38.121, 40.416,38.646z M 15.00,39.00L9.00,39.00 c-1.659,0.00-3.00-1.341-3.00-3.00L6.00,12.00 c0.00-1.659, 1.341-3.00, 3.00-3.00l6.00,0.00 c 1.659,0.00, 3.00,1.341, 3.00,3.00l0.00,12.00 l0.00,12.00 C 18.00,37.659, 16.659,39.00, 15.00,39.00z" ></path></svg>