<?xml version="1.0" encoding="utf-8"?> <!-- Generator: IcoMoon.io --> <!DOCTYPE svg PUBLIC "-//W3C//DTD SVG 1.1//EN" "http://www.w3.org/Graphics/SVG/1.1/DTD/svg11.dtd"> <svg version="1.1" id="Layer_1" xmlns="http://www.w3.org/2000/svg" xmlns:xlink="http://www.w3.org/1999/xlink" x="0px" y="0px" width="48px" height="48px" viewBox="0 0 48 48" enable-background="new 0 0 16 16" xml:space="preserve" fill="#000000"> <path d="M 48.00,39.00c0.00,4.971-4.032,9.00-9.00,9.00s-9.00-4.029-9.00-9.00c0.00-3.915, 2.514-7.209, 6.00-8.448L36.00,15.00 c0.00-1.659-1.341-3.00-3.00-3.00l0.00,2.997 c0.00,1.212-0.732,2.31-1.851,2.772c-1.122,0.465-2.412,0.207-3.27-0.648l-6.00-6.003 C 21.294,10.533, 21.00,9.768, 21.00,8.997c0.00-0.765, 0.294-1.533, 0.879-2.118l 6.00-6.00c 0.858-0.858, 2.148-1.113, 3.27-0.651 C 32.268,0.69, 33.00,1.785, 33.00,2.997L33.00,6.00 c 4.968,0.00, 9.00,4.029, 9.00,9.00l0.00,15.552 C 45.486,31.791, 48.00,35.085, 48.00,39.00z M 39.00,36.00c-1.659,0.00-3.00,1.341-3.00,3.00 s 1.341,3.00, 3.00,3.00s 3.00-1.341, 3.00-3.00S 40.659,36.00, 39.00,36.00z M 18.00,39.00c0.00,4.971-4.029,9.00-9.00,9.00s-9.00-4.029-9.00-9.00c0.00-3.915, 2.511-7.209, 6.00-8.448L6.00,17.448 C 2.511,16.209,0.00,12.915,0.00,9.00c0.00-4.971, 4.029-9.00, 9.00-9.00s 9.00,4.029, 9.00,9.00c0.00,3.915-2.511,7.209-6.00,8.448l0.00,13.101 C 15.489,31.791, 18.00,35.085, 18.00,39.00z M 9.00,6.00 C 7.344,6.00, 6.00,7.341, 6.00,9.00s 1.344,3.00, 3.00,3.00s 3.00-1.341, 3.00-3.00S 10.656,6.00, 9.00,6.00z M 9.00,36.00c-1.656,0.00-3.00,1.341-3.00,3.00s 1.344,3.00, 3.00,3.00s 3.00-1.341, 3.00-3.00S 10.656,36.00, 9.00,36.00z" ></path></svg>