<?xml version="1.0" encoding="utf-8"?> <!-- Generator: IcoMoon.io --> <!DOCTYPE svg PUBLIC "-//W3C//DTD SVG 1.1//EN" "http://www.w3.org/Graphics/SVG/1.1/DTD/svg11.dtd"> <svg version="1.1" id="Layer_1" xmlns="http://www.w3.org/2000/svg" xmlns:xlink="http://www.w3.org/1999/xlink" x="0px" y="0px" width="48px" height="48px" viewBox="0 0 48 48" enable-background="new 0 0 16 16" xml:space="preserve" fill="#000000"> <path d="M 42.00,19.881L42.00,9.00 c0.00-1.656-1.341-3.00-3.00-3.00L15.00,6.00 C 13.341,6.00, 12.00,7.344, 12.00,9.00l0.00,30.00 c0.00,1.659, 1.341,3.00, 3.00,3.00l4.881,0.00 c 1.23,2.394, 2.985,4.464, 5.175,6.00L15.00,48.00 c-4.971,0.00-9.00-4.032-9.00-9.00l0.00,0.00L3.00,39.00 c-1.659,0.00-3.00-1.341-3.00-3.00s 1.341-3.00, 3.00-3.00l3.00,0.00 L6.00,27.00 L3.00,27.00 C 1.341,27.00,0.00,25.656,0.00,24.00s 1.341-3.00, 3.00-3.00l3.00,0.00 L6.00,15.00 L3.00,15.00 C 1.341,15.00,0.00,13.656,0.00,12.00s 1.341-3.00, 3.00-3.00l3.00,0.00 l0.00,0.00c0.00-4.971, 4.029-9.00, 9.00-9.00l24.00,0.00 c 4.971,0.00, 9.00,4.029, 9.00,9.00l0.00,16.056 C 46.464,22.866, 44.394,21.114, 42.00,19.881z M 15.00,21.00l10.056,0.00 C 23.85,21.843, 22.809,22.875, 21.87,24.00L15.00,24.00 L15.00,21.00 z M 15.00,27.00l4.881,0.00 c-0.489,0.951-0.882,1.95-1.182,3.00L15.00,30.00 L15.00,27.00 z M 15.00,36.00l0.00,-3.00 l3.153,0.00 C 18.105,33.504, 18.00,33.984, 18.00,34.50s 0.105,0.999, 0.153,1.50L15.00,36.00 z M 15.00,9.00l24.00,0.00 l0.00,3.00 L15.00,12.00 L15.00,9.00 z M 39.00,18.00L15.00,18.00 L15.00,15.00 l24.00,0.00 L39.00,18.00 z M 21.00,34.50 C 21.00,27.045, 27.045,21.00, 34.50,21.00S 48.00,27.045, 48.00,34.50S 41.955,48.00, 34.50,48.00S 21.00,41.955, 21.00,34.50z M 34.50,42.00c 4.143,0.00, 7.50-3.357, 7.50-7.50S 38.643,27.00, 34.50,27.00 S 27.00,30.357, 27.00,34.50S 30.357,42.00, 34.50,42.00z M 34.50,30.00c 0.828,0.00, 1.50,0.675, 1.50,1.50L36.00,33.00 l1.50,0.00 c 0.828,0.00, 1.50,0.675, 1.50,1.50 c0.00,0.828-0.672,1.50-1.50,1.50l-3.00,0.00 c-0.828,0.00-1.50-0.672-1.50-1.50l0.00,-3.00 C 33.00,30.675, 33.672,30.00, 34.50,30.00z" ></path></svg>