<?xml version="1.0" encoding="utf-8"?> <!-- Generator: IcoMoon.io --> <!DOCTYPE svg PUBLIC "-//W3C//DTD SVG 1.1//EN" "http://www.w3.org/Graphics/SVG/1.1/DTD/svg11.dtd"> <svg version="1.1" id="Layer_1" xmlns="http://www.w3.org/2000/svg" xmlns:xlink="http://www.w3.org/1999/xlink" x="0px" y="0px" width="48px" height="48px" viewBox="0 0 48 48" enable-background="new 0 0 16 16" xml:space="preserve" fill="#000000"> <path d="M 43.953,42.00c-2.472-6.987-9.12-12.00-16.953-12.00l0.00,6.00 c0.00,1.107-0.609,2.121-1.584,2.646 c-0.975,0.522-2.16,0.465-3.078-0.15l-18.00-12.00C 3.501,25.938, 3.00,25.002, 3.00,24.00s 0.501-1.938, 1.335-2.496l 18.00-12.00c 0.921-0.612, 2.103-0.672, 3.078-0.15 S 27.00,10.893, 27.00,12.00l0.00,6.00 c 9.939,0.00, 18.00,8.061, 18.00,18.00C 45.00,38.106, 44.619,40.122, 43.953,42.00z" ></path></svg>