<?xml version="1.0" encoding="utf-8"?> <!-- Generator: IcoMoon.io --> <!DOCTYPE svg PUBLIC "-//W3C//DTD SVG 1.1//EN" "http://www.w3.org/Graphics/SVG/1.1/DTD/svg11.dtd"> <svg version="1.1" id="Layer_1" xmlns="http://www.w3.org/2000/svg" xmlns:xlink="http://www.w3.org/1999/xlink" x="0px" y="0px" width="48px" height="48px" viewBox="0 0 48 48" enable-background="new 0 0 16 16" xml:space="preserve" fill="#000000"> <path d="M 36.00,18.00 C 42.627,18.00 48.00,23.373 48.00,30.00 C 48.00,32.196 47.367,34.227 46.335,36.00 C 44.256,32.43 40.431,30.00 36.00,30.00 L 36.00,36.00 C 36.00,37.107 35.391,38.121 34.413,38.646 C 33.438,39.168 32.256,39.111 31.335,38.496 L 13.335,26.496 C 12.501,25.938 12.00,25.002 12.00,24.00 C 12.00,22.998 12.501,22.062 13.338,21.504 L 31.338,9.504 C 32.256,8.892 33.441,8.832 34.416,9.354 C 35.391,9.876 36.00,10.893 36.00,12.00 L 36.00,18.00 Z M 9.00,24.00 C 9.00,26.013 9.999,27.876 11.67,28.995 L 23.778,37.065 C 23.523,37.725 23.058,38.298 22.413,38.646 C 21.438,39.168 20.256,39.111 19.335,38.496 L 1.335,26.496 C 0.501,25.938 0.00,25.002 0.00,24.00 C 0.00,22.998 0.501,22.062 1.338,21.504 L 19.338,9.504 C 20.256,8.892 21.441,8.832 22.416,9.354 C 23.061,9.699 23.526,10.272 23.781,10.938 L 11.673,19.008 C 9.999,20.124 9.00,21.99 9.00,24.00 Z" ></path></svg>