<?xml version="1.0" encoding="utf-8"?> <!-- Generator: IcoMoon.io --> <!DOCTYPE svg PUBLIC "-//W3C//DTD SVG 1.1//EN" "http://www.w3.org/Graphics/SVG/1.1/DTD/svg11.dtd"> <svg version="1.1" id="Layer_1" xmlns="http://www.w3.org/2000/svg" xmlns:xlink="http://www.w3.org/1999/xlink" x="0px" y="0px" width="48px" height="48px" viewBox="0 0 48 48" enable-background="new 0 0 16 16" xml:space="preserve" fill="#000000"> <path d="M 30.00,18.00l0.00,3.00 l3.00,0.00 c 1.659,0.00, 3.00,1.341, 3.00,3.00s-1.341,3.00-3.00,3.00L27.00,27.00 C 25.341,27.00, 24.00,25.659, 24.00,24.00L24.00,18.00 c0.00-1.659, 1.341-3.00, 3.00-3.00S 30.00,16.341, 30.00,18.00z M 27.00,45.00c-6.492,0.00-12.297-2.949-16.149-7.578c 0.087-0.066, 0.189-0.099, 0.27-0.18l 4.221-3.912 C 18.087,36.762, 22.263,39.00, 27.00,39.00c 8.286,0.00, 15.00-6.714, 15.00-15.00c0.00-8.283-6.714-15.00-15.00-15.00C 19.743,9.00, 13.692,14.154, 12.303,21.00L15.00,21.00 c 1.212,0.00, 2.31,0.732, 2.772,1.851c 0.462,1.125, 0.204,2.415-0.651,3.27l-6.00,6.00C 10.536,32.706, 9.768,33.00, 9.00,33.00s-1.536-0.294-2.121-0.879 l-6.00-6.00C 0.021,25.266-0.234,23.97, 0.228,22.851S 1.788,21.00, 3.00,21.00l3.24,0.00 C 7.695,10.827, 16.422,3.00, 27.00,3.00c 11.598,0.00, 21.00,9.402, 21.00,21.00S 38.598,45.00, 27.00,45.00z" ></path></svg>