<?xml version="1.0" encoding="utf-8"?> <!-- Generator: IcoMoon.io --> <!DOCTYPE svg PUBLIC "-//W3C//DTD SVG 1.1//EN" "http://www.w3.org/Graphics/SVG/1.1/DTD/svg11.dtd"> <svg version="1.1" id="Layer_1" xmlns="http://www.w3.org/2000/svg" xmlns:xlink="http://www.w3.org/1999/xlink" x="0px" y="0px" width="48px" height="48px" viewBox="0 0 48 48" enable-background="new 0 0 16 16" xml:space="preserve" fill="#000000"> <path d="M 46.416,38.646c-0.975,0.522-2.16,0.465-3.078-0.15l-18.00-12.00C 24.501,25.938, 24.00,25.002, 24.00,24.00 c0.00-1.005, 0.501-1.938, 1.335-2.496l 18.00-12.00c 0.921-0.612, 2.103-0.672, 3.078-0.15S 48.00,10.893, 48.00,12.00l0.00,24.00 C 48.00,37.107, 47.391,38.121, 46.416,38.646z M 22.416,38.646c-0.975,0.522-2.16,0.465-3.078-0.15l-18.00-12.00C 0.501,25.938,0.00,25.002,0.00,24.00c0.00-1.005, 0.501-1.938, 1.335-2.496l 18.00-12.00 c 0.921-0.612, 2.103-0.672, 3.078-0.15S 24.00,10.893, 24.00,12.00l0.00,12.00 l0.00,12.00 C 24.00,37.107, 23.391,38.121, 22.416,38.646z" ></path></svg>