<?xml version="1.0" encoding="utf-8"?> <!-- Generator: IcoMoon.io --> <!DOCTYPE svg PUBLIC "-//W3C//DTD SVG 1.1//EN" "http://www.w3.org/Graphics/SVG/1.1/DTD/svg11.dtd"> <svg version="1.1" id="Layer_1" xmlns="http://www.w3.org/2000/svg" xmlns:xlink="http://www.w3.org/1999/xlink" x="0px" y="0px" width="48px" height="48px" viewBox="0 0 48 48" enable-background="new 0 0 16 16" xml:space="preserve" fill="#000000"> <path d="M 7.50,18.00C 8.328,18.00, 9.00,17.328, 9.00,16.50S 8.328,15.00, 7.50,15.00C 6.672,15.00, 6.00,15.672, 6.00,16.50 S 6.672,18.00, 7.50,18.00z M 7.50,30.00C 6.672,30.00, 6.00,30.672, 6.00,31.50S 6.672,33.00, 7.50,33.00C 8.328,33.00, 9.00,32.328, 9.00,31.50S 8.328,30.00, 7.50,30.00z M 39.00,0.00L9.00,0.00 C 4.029,0.00,0.00,4.029,0.00,9.00l0.00,30.00 c0.00,4.971, 4.029,9.00, 9.00,9.00l30.00,0.00 c 4.968,0.00, 9.00-4.029, 9.00-9.00L48.00,9.00 C 48.00,4.029, 43.968,0.00, 39.00,0.00z M 42.00,39.00c0.00,1.659-1.341,3.00-3.00,3.00L9.00,42.00 c-1.656,0.00-3.00-1.341-3.00-3.00l0.00,-3.00 c-1.656,0.00-3.00-1.341-3.00-3.00l0.00,-3.00 c0.00-1.656, 1.344-3.00, 3.00-3.00L6.00,21.00 C 4.344,21.00, 3.00,19.659, 3.00,18.00L3.00,15.00 c0.00-1.656, 1.344-3.00, 3.00-3.00L6.00,9.00 c0.00-1.656, 1.344-3.00, 3.00-3.00l30.00,0.00 c 1.659,0.00, 3.00,1.344, 3.00,3.00L42.00,39.00 z M 36.00,9.00L12.00,9.00 C 10.344,9.00, 9.00,10.344, 9.00,12.00c 1.656,0.00, 3.00,1.344, 3.00,3.00l0.00,3.00 c0.00,1.659-1.344,3.00-3.00,3.00l0.00,6.00 c 1.656,0.00, 3.00,1.344, 3.00,3.00l0.00,3.00 c0.00,1.659-1.344,3.00-3.00,3.00c0.00,1.659, 1.344,3.00, 3.00,3.00l24.00,0.00 c 1.659,0.00, 3.00-1.341, 3.00-3.00L39.00,12.00 C 39.00,10.344, 37.659,9.00, 36.00,9.00z M 24.00,33.00 c-4.971,0.00-9.00-4.029-9.00-9.00s 4.029-9.00, 9.00-9.00c 4.968,0.00, 9.00,4.029, 9.00,9.00S 28.968,33.00, 24.00,33.00z M 24.00,18.00C 20.688,18.00, 18.00,20.688, 18.00,24.00s 2.688,6.00, 6.00,6.00s 6.00-2.688, 6.00-6.00 S 27.312,18.00, 24.00,18.00z" ></path></svg>