<?xml version="1.0" encoding="utf-8"?> <!-- Generator: IcoMoon.io --> <!DOCTYPE svg PUBLIC "-//W3C//DTD SVG 1.1//EN" "http://www.w3.org/Graphics/SVG/1.1/DTD/svg11.dtd"> <svg version="1.1" id="Layer_1" xmlns="http://www.w3.org/2000/svg" xmlns:xlink="http://www.w3.org/1999/xlink" x="0px" y="0px" width="48px" height="48px" viewBox="0 0 48 48" enable-background="new 0 0 16 16" xml:space="preserve" fill="#000000"> <path d="M 46.599,46.599c-1.758,1.758-4.605,1.758-6.363,0.00l-7.941-7.941 C 29.028,40.749, 25.167,42.00, 21.00,42.00c-11.598,0.00-21.00-9.402-21.00-21.00s 9.402-21.00, 21.00-21.00s 21.00,9.402, 21.00,21.00c0.00,4.167-1.251,8.028-3.342,11.295l 7.941,7.941 C 48.357,41.994, 48.357,44.841, 46.599,46.599z M 21.00,6.00C 12.717,6.00, 6.00,12.714, 6.00,21.00s 6.717,15.00, 15.00,15.00c 8.286,0.00, 15.00-6.714, 15.00-15.00S 29.286,6.00, 21.00,6.00z" ></path></svg>