<?xml version="1.0" encoding="utf-8"?> <!-- Generator: IcoMoon.io --> <!DOCTYPE svg PUBLIC "-//W3C//DTD SVG 1.1//EN" "http://www.w3.org/Graphics/SVG/1.1/DTD/svg11.dtd"> <svg version="1.1" id="Layer_1" xmlns="http://www.w3.org/2000/svg" xmlns:xlink="http://www.w3.org/1999/xlink" x="0px" y="0px" width="48px" height="48px" viewBox="0 0 48 48" enable-background="new 0 0 16 16" xml:space="preserve" fill="#000000"> <path d="M 45.00,33.00c 1.659,0.00, 3.00,1.341, 3.00,3.00s-1.341,3.00-3.00,3.00l-0.552,0.00 c-0.105,0.294-0.216,0.579-0.348,0.858l 0.384,0.384c 1.173,1.173, 1.173,3.069,0.00,4.242s-3.069,1.173-4.242,0.00L 39.858,44.10 c-0.279,0.132-0.564,0.243-0.858,0.348L39.00,45.00 c0.00,1.659-1.341,3.00-3.00,3.00s-3.00-1.341-3.00-3.00l0.00,-0.552 c-0.294-0.105-0.579-0.216-0.858-0.348 l-0.384,0.384c-1.173,1.173-3.069,1.173-4.242,0.00s-1.173-3.069,0.00-4.242L 27.90,39.858C 27.768,39.579, 27.657,39.294, 27.552,39.00L27.00,39.00 c-1.659,0.00-3.00-1.341-3.00-3.00s 1.341-3.00, 3.00-3.00l0.552,0.00 c 0.105-0.294, 0.216-0.579, 0.348-0.858l-0.384-0.384c-1.173-1.173-1.173-3.069,0.00-4.242 s 3.069-1.173, 4.242,0.00L 32.142,27.90C 32.421,27.768, 32.706,27.657, 33.00,27.552L33.00,27.00 c0.00-1.656, 1.341-3.00, 3.00-3.00s 3.00,1.344, 3.00,3.00l0.00,0.552 c 0.294,0.105, 0.579,0.216, 0.858,0.348l 0.384-0.384c 1.173-1.173, 3.069-1.173, 4.242,0.00s 1.173,3.069,0.00,4.242L 44.10,32.142 c 0.132,0.279, 0.243,0.564, 0.348,0.858L45.00,33.00 z M 36.00,30.00c-3.312,0.00-6.00,2.688-6.00,6.00s 2.688,6.00, 6.00,6.00s 6.00-2.688, 6.00-6.00S 39.312,30.00, 36.00,30.00z M 27.00,18.00L26.574,18.00 C 26.295,19.092, 25.86,20.115, 25.302,21.06l 0.306,0.303c 1.173,1.173, 1.173,3.072,0.00,4.242c-1.173,1.173-3.069,1.173-4.242,0.00L 21.06,25.302 C 20.115,25.86, 19.092,26.295, 18.00,26.574L18.00,27.00 c0.00,1.659-1.344,3.00-3.00,3.00S 12.00,28.659, 12.00,27.00L12.00,26.574 C 10.908,26.295, 9.885,25.86, 8.94,25.302L 8.637,25.605 c-1.173,1.173-3.072,1.173-4.245,0.00c-1.173-1.17-1.173-3.069,0.00-4.242L 4.698,21.06C 4.137,20.115, 3.708,19.092, 3.426,18.00L3.00,18.00 C 1.344,18.00,0.00,16.656,0.00,15.00s 1.344-3.00, 3.00-3.00l0.426,0.00 c 0.282-1.092, 0.714-2.115, 1.272-3.06L 4.392,8.637c-1.173-1.173-1.173-3.072,0.00-4.245 s 3.072-1.173, 4.245,0.00L 8.94,4.698C 9.885,4.137, 10.908,3.708, 12.00,3.426L12.00,3.00 c0.00-1.656, 1.344-3.00, 3.00-3.00s 3.00,1.344, 3.00,3.00l0.00,0.426 c 1.092,0.282, 2.115,0.714, 3.06,1.272l 0.303-0.306c 1.173-1.173, 3.069-1.173, 4.242,0.00s 1.173,3.072,0.00,4.245L 25.302,8.94 C 25.86,9.885, 26.295,10.908, 26.574,12.00L27.00,12.00 c 1.659,0.00, 3.00,1.344, 3.00,3.00S 28.659,18.00, 27.00,18.00z M 15.00,9.00C 11.688,9.00, 9.00,11.688, 9.00,15.00s 2.688,6.00, 6.00,6.00s 6.00-2.688, 6.00-6.00S 18.312,9.00, 15.00,9.00 z" ></path></svg>