<?xml version="1.0" encoding="utf-8"?> <!-- Generator: IcoMoon.io --> <!DOCTYPE svg PUBLIC "-//W3C//DTD SVG 1.1//EN" "http://www.w3.org/Graphics/SVG/1.1/DTD/svg11.dtd"> <svg version="1.1" id="Layer_1" xmlns="http://www.w3.org/2000/svg" xmlns:xlink="http://www.w3.org/1999/xlink" x="0px" y="0px" width="48px" height="48px" viewBox="0 0 48 48" enable-background="new 0 0 16 16" xml:space="preserve" fill="#000000"> <path d="M 24.00,0.00C 10.746,0.00,0.00,10.746,0.00,24.00s 10.746,24.00, 24.00,24.00s 24.00-10.746, 24.00-24.00S 37.254,0.00, 24.00,0.00z M 39.00,27.00l-3.426,0.00 c-0.282,1.089-0.714,2.112-1.272,3.063l 2.427,2.424c 1.17,1.173, 1.17,3.072,0.00,4.245c-1.173,1.17-3.072,1.17-4.245,0.00l-2.424-2.427 C 29.112,34.86, 28.089,35.295, 27.00,35.574L27.00,39.00 c0.00,1.659-1.341,3.00-3.00,3.00s-3.00-1.341-3.00-3.00l0.00,-3.426 c-1.089-0.282-2.112-0.714-3.063-1.272 l-2.424,2.427c-1.173,1.17-3.072,1.17-4.242,0.00c-1.173-1.173-1.173-3.072,0.00-4.245l 2.424-2.424C 13.14,29.112, 12.705,28.089, 12.426,27.00L9.00,27.00 C 7.341,27.00, 6.00,25.659, 6.00,24.00s 1.341-3.00, 3.00-3.00l3.426,0.00 C 12.705,19.911, 13.14,18.888, 13.695,17.937L 11.274,15.516c-1.173-1.173-1.173-3.072,0.00-4.242 c 1.17-1.173, 3.069-1.173, 4.242,0.00l 2.424,2.424C 18.888,13.14, 19.911,12.705, 21.00,12.426L21.00,9.00 c0.00-1.659, 1.341-3.00, 3.00-3.00s 3.00,1.341, 3.00,3.00l0.00,3.426 c 1.089,0.282, 2.112,0.714, 3.063,1.272l 2.424-2.424c 1.173-1.173, 3.072-1.173, 4.245,0.00c 1.17,1.17, 1.17,3.069,0.00,4.242l-2.427,2.424 C 34.86,18.888, 35.295,19.911, 35.574,21.00L39.00,21.00 c 1.659,0.00, 3.00,1.341, 3.00,3.00S 40.659,27.00, 39.00,27.00z M 24.00,18.00C 20.688,18.00, 18.00,20.688, 18.00,24.00s 2.688,6.00, 6.00,6.00s 6.00-2.688, 6.00-6.00 S 27.312,18.00, 24.00,18.00z" ></path></svg>