<?xml version="1.0" encoding="utf-8"?> <!-- Generator: IcoMoon.io --> <!DOCTYPE svg PUBLIC "-//W3C//DTD SVG 1.1//EN" "http://www.w3.org/Graphics/SVG/1.1/DTD/svg11.dtd"> <svg version="1.1" id="Layer_1" xmlns="http://www.w3.org/2000/svg" xmlns:xlink="http://www.w3.org/1999/xlink" x="0px" y="0px" width="48px" height="48px" viewBox="0 0 48 48" enable-background="new 0 0 16 16" xml:space="preserve" fill="#000000"> <path d="M 3.00,15.00 C 1.344,15.00 0.00,13.656 0.00,12.00 C 0.00,10.344 1.344,9.00 3.00,9.00 L 6.00,9.00 C 9.84,9.00 13.308,10.488 15.96,12.864 C 14.658,14.499 13.653,16.356 12.984,18.387 C 11.334,16.338 8.835,15.00 6.00,15.00 L 3.00,15.00 ZM 30.00,15.00 C 25.029,15.00 21.00,19.029 21.00,24.00 C 21.00,32.286 14.283,39.00 6.00,39.00 L 3.00,39.00 C 1.344,39.00 0.00,37.659 0.00,36.00 C 0.00,34.341 1.344,33.00 3.00,33.00 L 6.00,33.00 C 10.971,33.00 15.00,28.971 15.00,24.00 C 15.00,15.717 21.717,9.00 30.00,9.00 L 36.00,9.00 L 36.00,5.997 C 36.00,4.785 36.732,3.687 37.851,3.225 C 38.973,2.763 40.263,3.021 41.121,3.876 L 47.121,9.876 C 47.706,10.461 48.00,11.229 48.00,11.997 C 48.00,12.765 47.706,13.533 47.121,14.118 L 41.121,20.118 C 40.263,20.976 38.973,21.231 37.851,20.769 C 36.732,20.307 36.00,19.209 36.00,17.997 L 36.00,15.00 L 30.00,15.00 ZM 41.121,27.876 L 47.121,33.876 C 47.706,34.461 48.00,35.229 48.00,35.997 C 48.00,36.765 47.706,37.533 47.121,38.118 L 41.121,44.118 C 40.263,44.976 38.973,45.231 37.851,44.769 C 36.732,44.307 36.00,43.209 36.00,41.997 L 36.00,39.00 L 30.00,39.00 C 26.16,39.00 22.692,37.515 20.037,35.139 C 21.339,33.501 22.344,31.647 23.016,29.613 C 24.666,31.665 27.165,33.00 30.00,33.00 L 36.00,33.00 L 36.00,29.997 C 36.00,28.785 36.732,27.687 37.851,27.225 C 38.973,26.763 40.263,27.021 41.121,27.876 Z" ></path></svg>