<?xml version="1.0" encoding="utf-8"?> <!-- Generator: IcoMoon.io --> <!DOCTYPE svg PUBLIC "-//W3C//DTD SVG 1.1//EN" "http://www.w3.org/Graphics/SVG/1.1/DTD/svg11.dtd"> <svg version="1.1" id="Layer_1" xmlns="http://www.w3.org/2000/svg" xmlns:xlink="http://www.w3.org/1999/xlink" x="0px" y="0px" width="48px" height="48px" viewBox="0 0 48 48" enable-background="new 0 0 16 16" xml:space="preserve" fill="#000000"> <path d="M 24.00,48.00c-13.254,0.00-24.00-10.746-24.00-24.00s 10.746-24.00, 24.00-24.00c 13.254,0.00, 24.00,10.746, 24.00,24.00 S 37.254,48.00, 24.00,48.00z M 24.00,42.00c 5.31,0.00, 10.035-2.343, 13.329-6.00L10.671,36.00 C 13.965,39.657, 18.69,42.00, 24.00,42.00z M 24.00,6.00C 14.061,6.00, 6.00,14.061, 6.00,24.00 c0.00,2.115, 0.432,4.116, 1.101,6.00l33.798,0.00 C 41.565,28.116, 42.00,26.115, 42.00,24.00C 42.00,14.061, 33.939,6.00, 24.00,6.00z" ></path></svg>