<?xml version="1.0" encoding="utf-8"?> <!-- Generator: IcoMoon.io --> <!DOCTYPE svg PUBLIC "-//W3C//DTD SVG 1.1//EN" "http://www.w3.org/Graphics/SVG/1.1/DTD/svg11.dtd"> <svg version="1.1" id="Layer_1" xmlns="http://www.w3.org/2000/svg" xmlns:xlink="http://www.w3.org/1999/xlink" x="0px" y="0px" width="48px" height="48px" viewBox="0 0 48 48" enable-background="new 0 0 16 16" xml:space="preserve" fill="#000000"> <path d="M 24.00,48.00c-13.254,0.00-24.00-10.746-24.00-24.00s 10.746-24.00, 24.00-24.00s 24.00,10.746, 24.00,24.00S 37.254,48.00, 24.00,48.00z M 24.00,6.00 C 14.061,6.00, 6.00,14.061, 6.00,24.00s 8.061,18.00, 18.00,18.00s 18.00-8.061, 18.00-18.00S 33.939,6.00, 24.00,6.00z M 24.00,30.00c-1.659,0.00-3.00-1.341-3.00-3.00c0.00,0.00-3.00-8.688-3.00-12.00s 2.688-6.00, 6.00-6.00s 6.00,2.688, 6.00,6.00 L 27.00,27.00C 27.00,28.659, 25.659,30.00, 24.00,30.00z M 24.00,33.00c 1.659,0.00, 3.00,1.344, 3.00,3.00c0.00,1.659-1.341,3.00-3.00,3.00s-3.00-1.341-3.00-3.00C 21.00,34.344, 22.341,33.00, 24.00,33.00z" ></path></svg>