<?xml version="1.0" encoding="utf-8"?> <!-- Generator: IcoMoon.io --> <!DOCTYPE svg PUBLIC "-//W3C//DTD SVG 1.1//EN" "http://www.w3.org/Graphics/SVG/1.1/DTD/svg11.dtd"> <svg version="1.1" id="Layer_1" xmlns="http://www.w3.org/2000/svg" xmlns:xlink="http://www.w3.org/1999/xlink" x="0px" y="0px" width="48px" height="48px" viewBox="0 0 48 48" enable-background="new 0 0 16 16" xml:space="preserve" fill="#000000"> <path d="M 24.00,3.00 C 28.962,3.00 33.00,7.038 33.00,12.00 C 33.00,12.246 32.97,12.489 32.91,12.732 L 29.985,24.432 C 29.763,27.54 27.165,30.00 24.00,30.00 C 20.889,30.00 18.318,27.618 18.03,24.579 C 17.289,22.401 15.00,15.384 15.00,12.00 C 15.00,7.038 19.038,3.00 24.00,3.00 Z M 24.00,33.00 C 27.309,33.00 30.00,35.691 30.00,39.00 C 30.00,42.309 27.309,45.00 24.00,45.00 C 20.691,45.00 18.00,42.309 18.00,39.00 C 18.00,35.691 20.691,33.00 24.00,33.00 Z" ></path></svg>