<?xml version="1.0" encoding="utf-8"?> <!-- Generator: IcoMoon.io --> <!DOCTYPE svg PUBLIC "-//W3C//DTD SVG 1.1//EN" "http://www.w3.org/Graphics/SVG/1.1/DTD/svg11.dtd"> <svg version="1.1" id="Layer_1" xmlns="http://www.w3.org/2000/svg" xmlns:xlink="http://www.w3.org/1999/xlink" x="0px" y="0px" width="48px" height="48px" viewBox="0 0 48 48" enable-background="new 0 0 16 16" xml:space="preserve" fill="#000000"> <path d="M 45.00,27.00l-6.00,0.00 c-1.659,0.00-3.00-1.341-3.00-3.00c0.00-1.656, 1.341-3.00, 3.00-3.00l6.00,0.00 c 1.659,0.00, 3.00,1.344, 3.00,3.00C 48.00,25.659, 46.659,27.00, 45.00,27.00z M 36.726,15.516c-1.173,1.173-3.069,1.173-4.242,0.00s-1.173-3.069,0.00-4.242l 4.242-4.245 c 1.173-1.17, 3.069-1.17, 4.242,0.00c 1.173,1.173, 1.173,3.072,0.00,4.245L 36.726,15.516z M 24.00,48.00c-1.656,0.00-3.00-1.341-3.00-3.00l0.00,-6.00 c0.00-1.656, 1.344-3.00, 3.00-3.00 c 1.659,0.00, 3.00,1.344, 3.00,3.00l0.00,6.00 C 27.00,46.659, 25.659,48.00, 24.00,48.00z M 24.00,12.00C 22.344,12.00, 21.00,10.659, 21.00,9.00L21.00,3.00 c0.00-1.656, 1.344-3.00, 3.00-3.00c 1.659,0.00, 3.00,1.344, 3.00,3.00l0.00,6.00 C 27.00,10.659, 25.659,12.00, 24.00,12.00z M 11.271,40.971c-1.173,1.173-3.069,1.173-4.242,0.00s-1.173-3.072,0.00-4.242l 4.242-4.245 c 1.173-1.17, 3.072-1.17, 4.242,0.00c 1.173,1.173, 1.173,3.072,0.00,4.245L 11.271,40.971z M 11.271,15.516L 7.029,11.274 c-1.173-1.173-1.173-3.072,0.00-4.245c 1.173-1.17, 3.069-1.17, 4.242,0.00l 4.242,4.245c 1.173,1.173, 1.173,3.069,0.00,4.242 C 14.343,16.686, 12.444,16.686, 11.271,15.516z M 12.00,24.00c0.00,1.659-1.344,3.00-3.00,3.00L3.00,27.00 C 1.344,27.00,0.00,25.659,0.00,24.00c0.00-1.656, 1.344-3.00, 3.00-3.00l6.00,0.00 C 10.656,21.00, 12.00,22.344, 12.00,24.00z M 36.726,32.484l 4.242,4.245c 1.173,1.17, 1.173,3.069,0.00,4.242s-3.069,1.173-4.242,0.00l-4.242-4.242c-1.173-1.173-1.173-3.072,0.00-4.245 C 33.657,31.314, 35.556,31.314, 36.726,32.484z" ></path></svg>