<?xml version="1.0" encoding="utf-8"?> <!-- Generator: IcoMoon.io --> <!DOCTYPE svg PUBLIC "-//W3C//DTD SVG 1.1//EN" "http://www.w3.org/Graphics/SVG/1.1/DTD/svg11.dtd"> <svg version="1.1" id="Layer_1" xmlns="http://www.w3.org/2000/svg" xmlns:xlink="http://www.w3.org/1999/xlink" x="0px" y="0px" width="48px" height="48px" viewBox="0 0 48 48" enable-background="new 0 0 16 16" xml:space="preserve" fill="#000000"> <path d="M 47.772,37.851C 47.31,36.732, 46.212,36.00, 45.00,36.00l-3.00,0.00 l0.00,-6.00 c0.00-4.971-4.032-9.00-9.00-9.00l-3.00,0.00 C 28.341,21.00, 27.00,19.659, 27.00,18.00L27.00,3.00 c0.00-1.656-1.341-3.00-3.00-3.00C 22.344,0.00, 21.00,1.344, 21.00,3.00l0.00,15.00 c0.00,1.659-1.344,3.00-3.00,3.00L15.00,21.00 c-4.971,0.00-9.00,4.029-9.00,9.00l0.00,6.00 L3.00,36.00 c-1.212,0.00-2.31,0.732-2.772,1.851c-0.462,1.122-0.204,2.412, 0.651,3.27l 6.00,6.00C 7.464,47.706, 8.232,48.00, 9.00,48.00 s 1.536-0.294, 2.121-0.879l 6.00-6.00c 0.858-0.858, 1.113-2.148, 0.651-3.27C 17.31,36.732, 16.212,36.00, 15.00,36.00L12.00,36.00 l0.00,-6.00 c0.00-1.656, 1.344-3.00, 3.00-3.00l3.00,0.00 c 2.316,0.00, 4.404-0.90, 6.00-2.334C 25.593,26.10, 27.687,27.00, 30.00,27.00l3.00,0.00 c 1.659,0.00, 3.00,1.344, 3.00,3.00l0.00,6.00 l-3.00,0.00 c-1.212,0.00-2.31,0.732-2.772,1.851 c-0.462,1.122-0.204,2.412, 0.651,3.27l 6.00,6.00C 37.464,47.706, 38.232,48.00, 39.00,48.00s 1.536-0.294, 2.121-0.879l 6.00-6.00 C 47.979,40.263, 48.234,38.973, 47.772,37.851z" ></path></svg>