<?xml version="1.0" encoding="utf-8"?> <!-- Generator: IcoMoon.io --> <!DOCTYPE svg PUBLIC "-//W3C//DTD SVG 1.1//EN" "http://www.w3.org/Graphics/SVG/1.1/DTD/svg11.dtd"> <svg version="1.1" id="Layer_1" xmlns="http://www.w3.org/2000/svg" xmlns:xlink="http://www.w3.org/1999/xlink" x="0px" y="0px" width="48px" height="48px" viewBox="0 0 48 48" enable-background="new 0 0 16 16" xml:space="preserve" fill="#000000"> <path d="M 24.00,48.00c-13.254,0.00-24.00-10.746-24.00-24.00s 10.746-24.00, 24.00-24.00s 24.00,10.746, 24.00,24.00 S 37.254,48.00, 24.00,48.00z M 24.00,6.00C 14.061,6.00, 6.00,14.061, 6.00,24.00c0.00,9.942, 8.061,18.00, 18.00,18.00s 18.00-8.058, 18.00-18.00C 42.00,14.061, 33.939,6.00, 24.00,6.00z M 36.99,31.50 c-0.825,1.437-2.664,1.929-4.098,1.098c-1.434-0.828-1.926-2.664-1.098-4.098c 0.828-1.437, 2.667-1.926, 4.098-1.098 C 37.326,28.23, 37.818,30.063, 36.99,31.50z M 24.00,30.00c-3.312,0.00-6.00-2.688-6.00-6.00s 2.688-6.00, 6.00-6.00s 6.00,2.688, 6.00,6.00S 27.312,30.00, 24.00,30.00z M 24.00,21.00 C 22.344,21.00, 21.00,22.344, 21.00,24.00s 1.344,3.00, 3.00,3.00s 3.00-1.344, 3.00-3.00S 25.656,21.00, 24.00,21.00z M 24.00,15.00C 22.344,15.00, 21.00,13.656, 21.00,12.00s 1.344-3.00, 3.00-3.00s 3.00,1.344, 3.00,3.00S 25.656,15.00, 24.00,15.00z M 15.108,32.598c-1.437,0.828-3.27,0.336-4.098-1.098S 10.674,28.23, 12.108,27.402C 13.542,26.574, 15.378,27.063, 16.206,28.50 C 17.034,29.937, 16.542,31.77, 15.108,32.598z" ></path></svg>