<?xml version="1.0" encoding="utf-8"?> <!-- Generator: IcoMoon.io --> <!DOCTYPE svg PUBLIC "-//W3C//DTD SVG 1.1//EN" "http://www.w3.org/Graphics/SVG/1.1/DTD/svg11.dtd"> <svg version="1.1" id="Layer_1" xmlns="http://www.w3.org/2000/svg" xmlns:xlink="http://www.w3.org/1999/xlink" x="0px" y="0px" width="48px" height="48px" viewBox="0 0 48 48" enable-background="new 0 0 16 16" xml:space="preserve" fill="#000000"> <path d="M 24.00,0.00C 10.746,0.00,0.00,10.746,0.00,24.00s 10.746,24.00, 24.00,24.00s 24.00-10.746, 24.00-24.00S 37.254,0.00, 24.00,0.00z M 24.00,42.00 c-9.939,0.00-18.00-8.061-18.00-18.00s 8.061-18.00, 18.00-18.00s 18.00,8.061, 18.00,18.00S 33.939,42.00, 24.00,42.00z M 28.41,17.934L 24.00,9.003L 19.593,17.934L 9.735,19.368l 7.134,6.951 l-1.686,9.813L 24.00,31.50l 8.814,4.635l-1.683-9.813l 7.131-6.951L 28.41,17.934z" ></path></svg>