<?xml version="1.0" encoding="utf-8"?> <!-- Generator: IcoMoon.io --> <!DOCTYPE svg PUBLIC "-//W3C//DTD SVG 1.1//EN" "http://www.w3.org/Graphics/SVG/1.1/DTD/svg11.dtd"> <svg version="1.1" id="Layer_1" xmlns="http://www.w3.org/2000/svg" xmlns:xlink="http://www.w3.org/1999/xlink" x="0px" y="0px" width="48px" height="48px" viewBox="0 0 48 48" enable-background="new 0 0 16 16" xml:space="preserve" fill="#000000"> <path d="M 42.00,30.00c0.00,9.939-8.061,18.00-18.00,18.00s-18.00-8.061-18.00-18.00s 8.061-18.00, 18.00-18.00S 42.00,20.061, 42.00,30.00z M 24.00,18.00 c-6.627,0.00-12.00,5.373-12.00,12.00s 5.373,12.00, 12.00,12.00s 12.00-5.373, 12.00-12.00S 30.627,18.00, 24.00,18.00z M 24.00,33.00c-1.656,0.00-3.00-1.341-3.00-3.00s 3.00-9.00, 3.00-9.00s 3.00,7.341, 3.00,9.00S 25.659,33.00, 24.00,33.00z M 18.00,6.00 c0.00-3.312, 2.688-6.00, 6.00-6.00s 6.00,2.688, 6.00,6.00S 27.312,12.00, 24.00,12.00S 18.00,9.312, 18.00,6.00z M 24.00,9.00c 1.659,0.00, 3.00-1.341, 3.00-3.00S 25.659,3.00, 24.00,3.00C 22.344,3.00, 21.00,4.341, 21.00,6.00S 22.344,9.00, 24.00,9.00z " ></path></svg>