<?xml version="1.0" encoding="utf-8"?> <!-- Generator: IcoMoon.io --> <!DOCTYPE svg PUBLIC "-//W3C//DTD SVG 1.1//EN" "http://www.w3.org/Graphics/SVG/1.1/DTD/svg11.dtd"> <svg version="1.1" id="Layer_1" xmlns="http://www.w3.org/2000/svg" xmlns:xlink="http://www.w3.org/1999/xlink" x="0px" y="0px" width="48px" height="48px" viewBox="0 0 48 48" enable-background="new 0 0 16 16" xml:space="preserve" fill="#000000"> <path d="M 48.00,24.00c0.00,1.014-0.081,2.01-0.204,2.991 c-0.03,0.24-0.072,0.477-0.111,0.714c-0.129,0.822-0.294,1.635-0.504,2.43c-0.039,0.141-0.069,0.285-0.108,0.423 c-0.57,1.986-1.383,3.873-2.415,5.616c-2.064,3.498-4.986,6.42-8.484,8.484c-1.743,1.032-3.63,1.842-5.616,2.415 c-0.138,0.039-0.282,0.069-0.423,0.108c-0.795,0.21-1.605,0.375-2.43,0.504c-0.237,0.039-0.474,0.081-0.714,0.111 C 26.01,47.919, 25.014,48.00, 24.00,48.00l0.00,0.00l0.00,0.00c-1.014,0.00-2.01-0.081-2.991-0.204c-0.243-0.03-0.477-0.072-0.717-0.111 c-0.822-0.129-1.635-0.294-2.43-0.504c-0.138-0.039-0.282-0.069-0.42-0.108c-1.989-0.57-3.873-1.383-5.616-2.415 c-3.498-2.064-6.42-4.986-8.487-8.484c-1.029-1.743-1.842-3.63-2.412-5.616c-0.039-0.138-0.072-0.282-0.108-0.423 C 0.609,29.34, 0.444,28.53, 0.315,27.705C 0.279,27.468, 0.237,27.231, 0.204,26.991C 0.081,26.01,0.00,25.014,0.00,24.00l0.00,0.00l0.00,0.00 c0.00-1.014, 0.081-2.01, 0.204-2.991c 0.03-0.243, 0.072-0.477, 0.111-0.717c 0.129-0.822, 0.294-1.635, 0.507-2.43 c 0.036-0.138, 0.069-0.282, 0.108-0.42C 1.50,15.456, 2.313,13.569, 3.342,11.826c 2.067-3.498, 4.989-6.42, 8.487-8.487 C 13.569,2.313, 15.456,1.50, 17.442,0.93c 0.138-0.039, 0.282-0.072, 0.42-0.108c 0.795-0.213, 1.608-0.375, 2.43-0.507 c 0.24-0.036, 0.474-0.078, 0.717-0.111C 21.99,0.081, 22.986,0.00, 24.00,0.00l0.00,0.00l0.00,0.00c 1.014,0.00, 2.01,0.081, 2.991,0.204 c 0.24,0.03, 0.477,0.072, 0.714,0.111c 0.822,0.129, 1.635,0.294, 2.43,0.507c 0.141,0.036, 0.285,0.069, 0.423,0.108 c 1.986,0.57, 3.873,1.383, 5.616,2.412c 3.498,2.067, 6.42,4.989, 8.484,8.487c 1.032,1.743, 1.842,3.627, 2.415,5.616 c 0.039,0.138, 0.069,0.282, 0.108,0.42c 0.21,0.795, 0.375,1.608, 0.504,2.43c 0.039,0.24, 0.081,0.474, 0.111,0.717 C 47.919,21.99, 48.00,22.986, 48.00,24.00L 48.00,24.00L 48.00,24.00z M 10.059,18.546L 5.598,14.082C 3.996,17.049, 3.00,20.391, 3.00,24.00c0.00,3.609, 0.996,6.951, 2.598,9.918 l 4.461-4.461C 9.396,27.762, 9.00,25.932, 9.00,24.00C 9.00,22.071, 9.396,20.241, 10.059,18.546z M 24.00,45.00c 3.609,0.00, 6.951-0.993, 9.918-2.595l-4.461-4.464 C 27.762,38.604, 25.932,39.00, 24.00,39.00c-1.929,0.00-3.759-0.396-5.454-1.062l-4.464,4.464C 17.049,44.007, 20.391,45.00, 24.00,45.00z M 24.00,3.00 C 20.391,3.00, 17.049,3.996, 14.082,5.598l 4.464,4.461C 20.241,9.396, 22.071,9.00, 24.00,9.00c 1.932,0.00, 3.762,0.396, 5.454,1.059l 4.461-4.461 C 30.951,3.996, 27.609,3.00, 24.00,3.00z M 35.556,20.931L 35.556,20.931c-1.101-4.146-4.338-7.383-8.484-8.487l0.00,0.00l0.00,0.00 C 26.673,12.339, 26.271,12.252, 25.857,12.186C 25.251,12.078, 24.639,12.00, 24.00,12.00S 22.749,12.078, 22.14,12.186C 21.729,12.252, 21.327,12.339, 20.931,12.444l0.00,0.00l0.00,0.00 C 16.785,13.548, 13.548,16.785, 12.444,20.931l0.00,0.00l0.00,0.00C 12.339,21.327, 12.252,21.729, 12.186,22.14C 12.078,22.749, 12.00,23.361, 12.00,24.00s 0.078,1.251, 0.186,1.857 c 0.063,0.414, 0.153,0.813, 0.258,1.212l0.00,0.00l0.00,0.00c 1.101,4.146, 4.341,7.383, 8.487,8.484l0.00,0.00l0.00,0.00c 0.396,0.105, 0.798,0.192, 1.209,0.258 C 22.749,35.922, 23.361,36.00, 24.00,36.00s 1.251-0.078, 1.857-0.186c 0.414-0.063, 0.813-0.153, 1.212-0.258l0.00,0.00l0.00,0.00 c 4.146-1.101, 7.383-4.338, 8.484-8.484l0.00,0.00l0.00,0.00c 0.105-0.399, 0.192-0.801, 0.258-1.212C 35.922,25.251, 36.00,24.639, 36.00,24.00 s-0.078-1.251-0.186-1.86C 35.748,21.729, 35.661,21.327, 35.556,20.931L 35.556,20.931z M 42.405,14.082l-4.464,4.464 C 38.604,20.241, 39.00,22.071, 39.00,24.00c0.00,1.932-0.396,3.762-1.062,5.454l 4.464,4.461C 44.007,30.951, 45.00,27.609, 45.00,24.00 C 45.00,20.391, 44.007,17.049, 42.405,14.082z" ></path></svg>