<?xml version="1.0" encoding="utf-8"?> <!-- Generator: IcoMoon.io --> <!DOCTYPE svg PUBLIC "-//W3C//DTD SVG 1.1//EN" "http://www.w3.org/Graphics/SVG/1.1/DTD/svg11.dtd"> <svg version="1.1" id="Layer_1" xmlns="http://www.w3.org/2000/svg" xmlns:xlink="http://www.w3.org/1999/xlink" x="0px" y="0px" width="48px" height="48px" viewBox="0 0 48 48" enable-background="new 0 0 16 16" xml:space="preserve" fill="#000000"> <path d="M 42.411,14.097C 43.077,15.33, 43.605,16.644, 44.034,18.00l-6.312,0.00 C 36.204,14.556, 33.45,11.778, 30.00,10.266l0.00,-6.30 c 1.368,0.432, 2.688,0.966, 3.936,1.638l 3.846-3.846c 2.343-2.343, 6.141-2.343, 8.484,0.00 c 2.343,2.343, 2.343,6.141,0.00,8.484L 42.411,14.097z M 44.145,3.879c-1.173-1.173-3.069-1.173-4.242,0.00L 36.54,7.245 c 1.608,1.209, 3.033,2.631, 4.239,4.245l 3.366-3.369C 45.315,6.948, 45.315,5.052, 44.145,3.879z M 21.00,9.303L21.00,3.249 C 21.978,3.099, 22.977,3.00, 24.00,3.00 s 2.022,0.099, 3.00,0.249l0.00,6.051 C 26.031,9.105, 25.029,9.00, 24.00,9.00C 22.974,9.00, 21.969,9.105, 21.00,9.303z M 10.218,46.242c-2.343,2.343-6.141,2.343-8.487,0.00 c-2.343-2.343-2.343-6.141,0.00-8.484l 3.855-3.855C 4.923,32.67, 4.395,31.356, 3.966,30.00l6.30,0.00 c 1.512,3.45, 4.29,6.204, 7.734,7.719l0.00,6.312 c-1.368-0.432-2.691-0.963-3.933-1.638L 10.218,46.242z M 7.221,36.513l-3.369,3.366c-1.17,1.173-1.17,3.069,0.00,4.242 c 1.173,1.173, 3.072,1.173, 4.245,0.00l 3.366-3.363C 9.852,39.549, 8.427,38.124, 7.221,36.513z M 3.249,27.00C 3.099,26.022, 3.00,25.023, 3.00,24.00 s 0.099-2.022, 0.249-3.00l6.087,0.00 C 9.138,21.972, 9.00,22.968, 9.00,24.00c0.00,1.029, 0.105,2.031, 0.303,3.00L3.249,27.00 z M 10.281,18.00L3.966,18.00 c 0.429-1.356, 0.957-2.67, 1.623-3.903L 1.734,10.242c-2.343-2.343-2.343-6.141,0.00-8.484c 2.343-2.343, 6.141-2.343, 8.487,0.00l 3.849,3.846 C 15.309,4.932, 16.632,4.398, 18.00,3.966l0.00,6.30 C 14.55,11.778, 11.796,14.556, 10.281,18.00z M 8.097,3.879c-1.173-1.173-3.072-1.173-4.245,0.00 c-1.17,1.173-1.17,3.069,0.00,4.242L 7.221,11.49c 1.206-1.614, 2.628-3.036, 4.242-4.245L 8.097,3.879z M 27.00,38.661l0.00,6.09 C 26.022,44.901, 25.023,45.00, 24.00,45.00s-2.022-0.099-3.00-0.249l0.00,-6.09 C 21.972,38.859, 22.968,39.00, 24.00,39.00S 26.028,38.859, 27.00,38.661z M 44.748,21.00 C 44.901,21.978, 45.00,22.977, 45.00,24.00s-0.099,2.022-0.252,3.00l-6.051,0.00 C 38.895,26.031, 39.00,25.029, 39.00,24.00c0.00-1.032-0.141-2.028-0.339-3.00L44.748,21.00 z M 30.00,37.719c 3.444-1.515, 6.222-4.269, 7.734-7.719l6.30,0.00 c-0.429,1.356-0.954,2.67-1.623,3.903l 3.855,3.855 c 2.343,2.343, 2.343,6.141,0.00,8.484s-6.141,2.343-8.484,0.00l-3.846-3.846c-1.245,0.675-2.565,1.206-3.936,1.638L30.00,37.719 z M 39.903,44.121 c 1.173,1.173, 3.069,1.173, 4.242,0.00s 1.173-3.069,0.00-4.242l-3.366-3.366c-1.206,1.611-2.631,3.036-4.239,4.245L 39.903,44.121z" ></path></svg>