<?xml version="1.0" encoding="utf-8"?> <!-- Generator: IcoMoon.io --> <!DOCTYPE svg PUBLIC "-//W3C//DTD SVG 1.1//EN" "http://www.w3.org/Graphics/SVG/1.1/DTD/svg11.dtd"> <svg version="1.1" id="Layer_1" xmlns="http://www.w3.org/2000/svg" xmlns:xlink="http://www.w3.org/1999/xlink" x="0px" y="0px" width="48px" height="48px" viewBox="0 0 48 48" enable-background="new 0 0 16 16" xml:space="preserve" fill="#000000"> <path d="M 42.411,14.097C 43.557,16.218, 44.367,18.537, 44.748,21.00l-9.174,0.00 C 34.488,16.80, 31.20,13.512, 27.00,12.426L27.00,3.252 c 2.475,0.381, 4.806,1.20, 6.936,2.352l 3.846-3.846c 2.343-2.343, 6.141-2.343, 8.484,0.00 s 2.343,6.141,0.00,8.484L 42.411,14.097z M 44.145,3.879c-1.173-1.173-3.069-1.173-4.242,0.00L 36.54,7.245 c 1.608,1.206, 3.033,2.631, 4.239,4.242l 3.366-3.366C 45.315,6.948, 45.315,5.052, 44.145,3.879z M 21.00,12.426C 16.80,13.512, 13.512,16.80, 12.426,21.00 L3.252,21.00 c 0.381-2.463, 1.191-4.782, 2.337-6.903L 1.734,10.242c-2.343-2.343-2.343-6.141,0.00-8.484s 6.141-2.343, 8.484,0.00l 3.846,3.846 C 16.194,4.452, 18.525,3.633, 21.00,3.252L21.00,12.426 z M 8.097,3.879c-1.173-1.173-3.069-1.173-4.242,0.00s-1.173,3.069,0.00,4.242l 3.366,3.366 C 8.427,9.876, 9.849,8.451, 11.46,7.245L 8.097,3.879z M 5.589,33.903C 4.443,31.782, 3.633,29.463, 3.252,27.00l9.174,0.00 C 13.512,31.20, 16.80,34.488, 21.00,35.574l0.00,9.177 c-2.475-0.384-4.806-1.203-6.936-2.355l-3.846,3.846c-2.343,2.343-6.141,2.343-8.484,0.00 s-2.343-6.141,0.00-8.484L 5.589,33.903z M 3.855,44.121c 1.173,1.173, 3.069,1.173, 4.242,0.00l 3.363-3.363 c-1.611-1.209-3.036-2.634-4.239-4.245l-3.366,3.366C 2.685,41.052, 2.685,42.948, 3.855,44.121z M 27.00,35.574 C 31.20,34.488, 34.488,31.20, 35.574,27.00l9.174,0.00 c-0.381,2.463-1.191,4.782-2.337,6.903l 3.855,3.855c 2.343,2.343, 2.343,6.141,0.00,8.484 s-6.141,2.343-8.484,0.00l-3.846-3.846c-2.13,1.152-4.458,1.971-6.936,2.355L27.00,35.574 z M 39.903,44.121c 1.173,1.173, 3.069,1.173, 4.242,0.00 s 1.173-3.069,0.00-4.242l-3.366-3.366c-1.206,1.611-2.631,3.036-4.239,4.245L 39.903,44.121z" ></path></svg>