<?xml version="1.0" encoding="utf-8"?> <!-- Generator: IcoMoon.io --> <!DOCTYPE svg PUBLIC "-//W3C//DTD SVG 1.1//EN" "http://www.w3.org/Graphics/SVG/1.1/DTD/svg11.dtd"> <svg version="1.1" id="Layer_1" xmlns="http://www.w3.org/2000/svg" xmlns:xlink="http://www.w3.org/1999/xlink" x="0px" y="0px" width="48px" height="48px" viewBox="0 0 48 48" enable-background="new 0 0 16 16" xml:space="preserve" fill="#000000"> <path d="M 15.00,30.00L3.00,30.00 c-1.656,0.00-3.00,1.344-3.00,3.00l0.00,12.00 c0.00,1.659, 1.344,3.00, 3.00,3.00l12.00,0.00 c 1.656,0.00, 3.00-1.341, 3.00-3.00l0.00,-12.00 C 18.00,31.344, 16.656,30.00, 15.00,30.00z M 12.00,42.00L6.00,42.00 l0.00,-6.00 l6.00,0.00 L12.00,42.00 zM 45.00,0.00l-12.00,0.00 c-1.659,0.00-3.00,1.344-3.00,3.00l0.00,12.00 c0.00,1.656, 1.341,3.00, 3.00,3.00l12.00,0.00 c 1.659,0.00, 3.00-1.344, 3.00-3.00L48.00,3.00 C 48.00,1.344, 46.659,0.00, 45.00,0.00z M 42.00,12.00l-6.00,0.00 L36.00,6.00 l6.00,0.00 L42.00,12.00 zM 21.00,3.00 C 22.656,3.00 24.00,4.344 24.00,6.00 C 24.00,7.656 22.656,9.00 21.00,9.00 L 15.00,9.00 C 13.344,9.00 12.00,10.344 12.00,12.00 L 15.00,12.00 C 16.212,12.00 17.31,12.732 17.772,13.851 C 18.234,14.973 17.979,16.263 17.121,17.121 L 11.121,23.121 C 10.536,23.706 9.768,24.00 9.00,24.00 C 8.232,24.00 7.464,23.706 6.879,23.121 L 0.879,17.121 C 0.024,16.263 -0.234,14.973 0.228,13.851 C 0.69,12.732 1.788,12.00 3.00,12.00 L 6.00,12.00 C 6.00,7.029 10.029,3.00 15.00,3.00 L 21.00,3.00 ZM 41.121,24.879 L 47.121,30.879 C 47.976,31.737 48.234,33.027 47.772,34.149 C 47.31,35.268 46.212,36.00 45.00,36.00 L 42.00,36.00 C 42.00,40.968 37.968,45.00 33.00,45.00 L 27.00,45.00 C 25.341,45.00 24.00,43.656 24.00,42.00 C 24.00,40.341 25.344,39.00 27.00,39.00 L 33.00,39.00 C 34.659,39.00 36.00,37.659 36.00,36.00 L 33.00,36.00 C 31.788,36.00 30.69,35.268 30.228,34.149 C 29.766,33.027 30.021,31.737 30.879,30.879 L 36.879,24.879 C 37.464,24.294 38.232,24.00 39.00,24.00 C 39.768,24.00 40.536,24.294 41.121,24.879 Z" ></path></svg>