<?xml version="1.0" encoding="utf-8"?> <!-- Generator: IcoMoon.io --> <!DOCTYPE svg PUBLIC "-//W3C//DTD SVG 1.1//EN" "http://www.w3.org/Graphics/SVG/1.1/DTD/svg11.dtd"> <svg version="1.1" id="Layer_1" xmlns="http://www.w3.org/2000/svg" xmlns:xlink="http://www.w3.org/1999/xlink" x="0px" y="0px" width="48px" height="48px" viewBox="0 0 48 48" enable-background="new 0 0 16 16" xml:space="preserve" fill="#000000"> <path d="M 45.363,36.363l-9.00,9.00c-3.516,3.516-9.21,3.516-12.726,0.00l-15.00-15.00 C 6.879,28.605, 6.00,26.304, 6.00,24.00L6.00,6.00 l9.00,0.00 c0.00-1.656-1.344-3.00-3.00-3.00L6.00,3.00 C 4.344,3.00, 3.00,4.344, 3.00,6.00l0.00,4.50 C 3.00,11.328, 2.328,12.00, 1.50,12.00S0.00,11.328,0.00,10.50L0.00,6.00 c0.00-3.312, 2.688-6.00, 6.00-6.00l6.00,0.00 c 3.312,0.00, 6.00,2.688, 6.00,6.00l6.00,0.00 c 2.304,0.00, 4.605,0.879, 6.363,2.637l 15.00,15.00C 48.879,27.153, 48.879,32.847, 45.363,36.363z M 18.00,12.303L18.00,16.50 C 18.00,17.328, 17.328,18.00, 16.50,18.00S 15.00,17.328, 15.00,16.50L15.00,12.303 C 13.26,12.927, 12.00,14.547, 12.00,16.50C 12.00,18.987, 14.013,21.00, 16.50,21.00S 21.00,18.987, 21.00,16.50 C 21.00,14.547, 19.74,12.927, 18.00,12.303z M 41.121,27.879l-15.00-15.00C 25.536,12.294, 24.768,12.00, 24.00,12.00L22.467,12.00 C 23.415,13.257, 24.00,14.805, 24.00,16.50C 24.00,20.643, 20.643,24.00, 16.50,24.00 C 14.805,24.00, 13.257,23.415, 12.00,22.467L12.00,24.00 c0.00,0.768, 0.294,1.536, 0.879,2.121l 15.00,15.00c 1.173,1.173, 3.069,1.173, 4.242,0.00l 9.00-9.00 C 42.294,30.948, 42.294,29.052, 41.121,27.879z" ></path></svg>