<?xml version="1.0" encoding="utf-8"?> <!-- Generator: IcoMoon.io --> <!DOCTYPE svg PUBLIC "-//W3C//DTD SVG 1.1//EN" "http://www.w3.org/Graphics/SVG/1.1/DTD/svg11.dtd"> <svg version="1.1" id="Layer_1" xmlns="http://www.w3.org/2000/svg" xmlns:xlink="http://www.w3.org/1999/xlink" x="0px" y="0px" width="48px" height="48px" viewBox="0 0 48 48" enable-background="new 0 0 16 16" xml:space="preserve" fill="#000000"> <path d="M 33.00,36.00c-6.627,0.00-12.00-5.373-12.00-12.00c0.00-3.312-2.688-6.00-6.00-6.00S 9.00,20.688, 9.00,24.00 c0.00,1.656-1.341,3.00-3.00,3.00S 3.00,25.656, 3.00,24.00c0.00-6.627, 5.373-12.00, 12.00-12.00s 12.00,5.373, 12.00,12.00c0.00,3.312, 2.688,6.00, 6.00,6.00s 6.00-2.688, 6.00-6.00c0.00-1.656, 1.341-3.00, 3.00-3.00 s 3.00,1.344, 3.00,3.00C 45.00,30.627, 39.627,36.00, 33.00,36.00z" ></path></svg>