<?xml version="1.0" encoding="utf-8"?> <!-- Generator: IcoMoon.io --> <!DOCTYPE svg PUBLIC "-//W3C//DTD SVG 1.1//EN" "http://www.w3.org/Graphics/SVG/1.1/DTD/svg11.dtd"> <svg version="1.1" id="Layer_1" xmlns="http://www.w3.org/2000/svg" xmlns:xlink="http://www.w3.org/1999/xlink" x="0px" y="0px" width="48px" height="48px" viewBox="0 0 48 48" enable-background="new 0 0 16 16" xml:space="preserve" fill="#000000"> <path d="M 39.00,48.00L9.00,48.00 c-4.971,0.00-9.00-4.029-9.00-9.00L0.00,9.00 c0.00-4.971, 4.029-9.00, 9.00-9.00l30.00,0.00 c 4.968,0.00, 9.00,4.029, 9.00,9.00l0.00,30.00 C 48.00,43.971, 43.968,48.00, 39.00,48.00z M 42.00,9.00c0.00-1.659-1.341-3.00-3.00-3.00L9.00,6.00 C 7.344,6.00, 6.00,7.341, 6.00,9.00l0.00,30.00 c0.00,1.659, 1.344,3.00, 3.00,3.00l30.00,0.00 c 1.659,0.00, 3.00-1.341, 3.00-3.00L42.00,9.00 z M 34.50,36.00c-1.95,0.00-3.573-1.26-4.194-3.00L23.694,33.00 C 23.073,34.74, 21.45,36.00, 19.50,36.00C 17.013,36.00, 15.00,33.984, 15.00,31.50 S 17.013,27.00, 19.50,27.00c 1.95,0.00, 3.573,1.26, 4.194,3.00l6.609,0.00 c 0.621-1.74, 2.244-3.00, 4.194-3.00c 2.484,0.00, 4.50,2.016, 4.50,4.50S 36.984,36.00, 34.50,36.00z M 34.50,30.00 c-0.825,0.00-1.50,0.672-1.50,1.50s 0.675,1.50, 1.50,1.50s 1.50-0.672, 1.50-1.50S 35.325,30.00, 34.50,30.00z M 28.50,21.00C 26.55,21.00, 24.927,19.74, 24.306,18.00L17.697,18.00 C 17.073,19.74, 15.453,21.00, 13.50,21.00C 11.013,21.00, 9.00,18.984, 9.00,16.50S 11.013,12.00, 13.50,12.00c 1.953,0.00, 3.573,1.26, 4.197,3.00l6.609,0.00 C 24.927,13.26, 26.55,12.00, 28.50,12.00 C 30.984,12.00, 33.00,14.016, 33.00,16.50S 30.984,21.00, 28.50,21.00z M 13.50,15.00C 12.672,15.00, 12.00,15.672, 12.00,16.50S 12.672,18.00, 13.50,18.00C 14.328,18.00, 15.00,17.328, 15.00,16.50S 14.328,15.00, 13.50,15.00z" ></path></svg>