<?xml version="1.0" encoding="utf-8"?> <!-- Generator: IcoMoon.io --> <!DOCTYPE svg PUBLIC "-//W3C//DTD SVG 1.1//EN" "http://www.w3.org/Graphics/SVG/1.1/DTD/svg11.dtd"> <svg version="1.1" id="Layer_1" xmlns="http://www.w3.org/2000/svg" xmlns:xlink="http://www.w3.org/1999/xlink" x="0px" y="0px" width="48px" height="48px" viewBox="0 0 48 48" enable-background="new 0 0 16 16" xml:space="preserve" fill="#000000"> <path d="M 45.00,12.00l-12.00,0.00 c-1.659,0.00-3.00-1.341-3.00-3.00s 1.341-3.00, 3.00-3.00l12.00,0.00 c 1.659,0.00, 3.00,1.341, 3.00,3.00S 46.659,12.00, 45.00,12.00z M 24.00,30.00c-3.312,0.00-6.00-2.688-6.00-6.00c0.00-0.102, 0.024-0.195, 0.03-0.297C 18.495,23.865, 18.978,24.00, 19.50,24.00C 21.984,24.00, 24.00,21.984, 24.00,19.50 c0.00-0.522-0.135-1.005-0.297-1.47C 23.805,18.024, 23.898,18.00, 24.00,18.00c 3.312,0.00, 6.00,2.688, 6.00,6.00S 27.312,30.00, 24.00,30.00z M 24.00,12.00C 17.373,12.00, 12.00,17.373, 12.00,24.00s 5.373,12.00, 12.00,12.00 s 12.00-5.373, 12.00-12.00c0.00-2.196-0.633-4.227-1.665-6.00l10.611,0.00 C 47.088,21.303, 48.00,24.00, 48.00,24.00s-6.00,18.00-24.00,18.00S0.00,24.00,0.00,24.00s 6.00-18.00, 24.00-18.00c 0.186,0.00, 0.354,0.03, 0.543,0.036 C 24.213,6.966, 24.00,7.953, 24.00,9.00c0.00,1.077, 0.219,2.097, 0.567,3.06C 24.375,12.048, 24.195,12.00, 24.00,12.00z" ></path></svg>