<?xml version="1.0" encoding="utf-8"?> <!-- Generator: IcoMoon.io --> <!DOCTYPE svg PUBLIC "-//W3C//DTD SVG 1.1//EN" "http://www.w3.org/Graphics/SVG/1.1/DTD/svg11.dtd"> <svg version="1.1" id="Layer_1" xmlns="http://www.w3.org/2000/svg" xmlns:xlink="http://www.w3.org/1999/xlink" x="0px" y="0px" width="48px" height="48px" viewBox="0 0 48 48" enable-background="new 0 0 16 16" xml:space="preserve" fill="#000000"> <path d="M 42.00,42.00l-3.00,0.00 l0.00,3.00 c0.00,1.659-1.341,3.00-3.00,3.00s-3.00-1.341-3.00-3.00l0.00,-3.00 l-3.00,0.00 c-1.659,0.00-3.00-1.341-3.00-3.00 s 1.341-3.00, 3.00-3.00l3.00,0.00 l0.00,-3.00 c0.00-1.659, 1.341-3.00, 3.00-3.00s 3.00,1.341, 3.00,3.00l0.00,3.00 l3.00,0.00 c 1.659,0.00, 3.00,1.341, 3.00,3.00S 43.659,42.00, 42.00,42.00z M 27.423,30.423 C 23.715,31.536, 21.00,34.935, 21.00,39.00c0.00,3.915, 2.511,7.209, 6.00,8.448L27.00,48.00 L6.00,48.00 c-1.656,0.00-3.00-1.341-3.00-3.00c0.00-6.00, 5.799-11.598, 11.727-13.812 C 11.304,29.073, 9.00,25.317, 9.00,21.00L9.00,18.00 c0.00-6.627, 5.373-12.00, 12.00-12.00s 12.00,5.373, 12.00,12.00l0.00,3.00 c0.00,1.398-0.312,2.697-0.756,3.939 C 29.961,26.025, 28.161,27.96, 27.423,30.423z" ></path></svg>