<?xml version="1.0" encoding="utf-8"?> <!-- Generator: IcoMoon.io --> <!DOCTYPE svg PUBLIC "-//W3C//DTD SVG 1.1//EN" "http://www.w3.org/Graphics/SVG/1.1/DTD/svg11.dtd"> <svg version="1.1" id="Layer_1" xmlns="http://www.w3.org/2000/svg" xmlns:xlink="http://www.w3.org/1999/xlink" x="0px" y="0px" width="48px" height="48px" viewBox="0 0 48 48" enable-background="new 0 0 16 16" xml:space="preserve" fill="#000000"> <path d="M 42.00,39.00l-3.00,0.00 l0.00,3.00 c0.00,1.659-1.341,3.00-3.00,3.00s-3.00-1.341-3.00-3.00l0.00,-3.00 l-3.00,0.00 c-1.659,0.00-3.00-1.341-3.00-3.00 s 1.341-3.00, 3.00-3.00l3.00,0.00 l0.00,-3.00 c0.00-1.659, 1.341-3.00, 3.00-3.00s 3.00,1.341, 3.00,3.00l0.00,3.00 l3.00,0.00 c 1.659,0.00, 3.00,1.341, 3.00,3.00S 43.659,39.00, 42.00,39.00z M 27.423,27.423 c-1.677,0.504-3.132,1.491-4.245,2.784C 22.464,30.075, 21.738,30.00, 21.00,30.00c-5.586,0.00-10.662,3.831-12.00,9.00c0.00,1.659, 1.344,3.00, 3.00,3.00l11.454,0.00 C 24.438,43.062, 25.605,43.953, 27.00,44.448L27.00,48.00 L12.00,48.00 c-4.971,0.00-9.00-4.032-9.00-9.00c 0.927-5.502, 4.629-10.125, 9.336-12.729C 10.281,24.114, 9.00,21.21, 9.00,18.00L9.00,12.00 c0.00-6.627, 5.373-12.00, 12.00-12.00s 12.00,5.373, 12.00,12.00l0.00,6.00 c0.00,1.347-0.27,2.619-0.684,3.822C 29.979,22.893, 28.173,24.921, 27.423,27.423z M 27.00,12.00c0.00-3.312-2.688-6.00-6.00-6.00 S 15.00,8.688, 15.00,12.00l0.00,6.00 c0.00,3.312, 2.688,6.00, 6.00,6.00s 6.00-2.688, 6.00-6.00L27.00,12.00 z" ></path></svg>