<?xml version="1.0" encoding="utf-8"?> <!-- Generator: IcoMoon.io --> <!DOCTYPE svg PUBLIC "-//W3C//DTD SVG 1.1//EN" "http://www.w3.org/Graphics/SVG/1.1/DTD/svg11.dtd"> <svg version="1.1" id="Layer_1" xmlns="http://www.w3.org/2000/svg" xmlns:xlink="http://www.w3.org/1999/xlink" x="0px" y="0px" width="48px" height="48px" viewBox="0 0 48 48" enable-background="new 0 0 16 16" xml:space="preserve" fill="#000000"> <path d="M 42.00,39.00l-12.00,0.00 c-1.659,0.00-3.00-1.341-3.00-3.00s 1.341-3.00, 3.00-3.00l12.00,0.00 c 1.659,0.00, 3.00,1.341, 3.00,3.00 S 43.659,39.00, 42.00,39.00z M 30.711,27.00L30.00,27.00 c-2.748,0.00-5.181,1.26-6.831,3.201C 22.458,30.072, 21.735,30.00, 21.00,30.00c-5.586,0.00-10.662,3.831-12.00,9.00 c0.00,1.659, 1.344,3.00, 3.00,3.00l11.337,0.00 c 1.647,1.827, 4.008,3.00, 6.663,3.00l6.663,0.00 c-1.647,1.827-4.008,3.00-6.663,3.00L12.00,48.00 c-4.971,0.00-9.00-4.032-9.00-9.00 c 0.927-5.502, 4.629-10.125, 9.336-12.729C 10.281,24.114, 9.00,21.21, 9.00,18.00L9.00,12.00 c0.00-6.627, 5.373-12.00, 12.00-12.00s 12.00,5.373, 12.00,12.00l0.00,6.00 c0.00,3.21-1.281,6.114-3.333,8.271 C 30.039,26.475, 30.354,26.769, 30.711,27.00z M 27.00,12.00c0.00-3.312-2.688-6.00-6.00-6.00S 15.00,8.688, 15.00,12.00l0.00,6.00 c0.00,3.312, 2.688,6.00, 6.00,6.00s 6.00-2.688, 6.00-6.00L27.00,12.00 z" ></path></svg>