<?xml version="1.0" encoding="utf-8"?> <!-- Generator: IcoMoon.io --> <!DOCTYPE svg PUBLIC "-//W3C//DTD SVG 1.1//EN" "http://www.w3.org/Graphics/SVG/1.1/DTD/svg11.dtd"> <svg version="1.1" id="Layer_1" xmlns="http://www.w3.org/2000/svg" xmlns:xlink="http://www.w3.org/1999/xlink" x="0px" y="0px" width="48px" height="48px" viewBox="0 0 48 48" enable-background="new 0 0 16 16" xml:space="preserve" fill="#000000"> <path d="M 45.00,42.00l-9.00,0.00 l0.00,-3.00 l1.50,0.00 c 0.828,0.00, 1.50-0.672, 1.50-1.50S 38.328,36.00, 37.50,36.00l-6.00,0.00 c-0.825,0.00-1.50,0.672-1.50,1.50s 0.675,1.50, 1.50,1.50L33.00,39.00 l0.00,3.00 L15.00,42.00 l0.00,-3.00 l1.50,0.00 C 17.328,39.00, 18.00,38.328, 18.00,37.50S 17.328,36.00, 16.50,36.00l-6.00,0.00 C 9.672,36.00, 9.00,36.672, 9.00,37.50S 9.672,39.00, 10.50,39.00L12.00,39.00 l0.00,3.00 L3.00,42.00 c-1.656,0.00-3.00-1.341-3.00-3.00L0.00,9.00 c0.00-1.656, 1.344-3.00, 3.00-3.00l42.00,0.00 c 1.659,0.00, 3.00,1.344, 3.00,3.00l0.00,30.00 C 48.00,40.659, 46.659,42.00, 45.00,42.00z M 30.00,33.00l3.00,0.00 l0.00,-3.00 l-3.00,0.00 L30.00,33.00 z M 30.00,21.00l6.00,0.00 L36.00,18.00 l-6.00,0.00 L30.00,21.00 z M 27.00,12.00L6.00,12.00 l0.00,21.00 l21.00,0.00 L27.00,12.00 z M 39.00,12.00l-9.00,0.00 l0.00,3.00 l9.00,0.00 L39.00,12.00 z M 45.00,12.00l-3.00,0.00 l0.00,3.00 l3.00,0.00 L45.00,12.00 z M 45.00,18.00l-6.00,0.00 l0.00,3.00 l6.00,0.00 L45.00,18.00 z M 45.00,24.00l-15.00,0.00 l0.00,3.00 l15.00,0.00 L45.00,24.00 z M 15.00,27.183L15.00,26.697 C 13.26,26.073, 12.00,24.453, 12.00,22.50l0.00,-3.00 C 12.00,17.013, 14.013,15.00, 16.50,15.00S 21.00,17.013, 21.00,19.50l0.00,3.00 c0.00,1.953-1.26,3.573-3.00,4.197 l0.00,0.483 C 19.812,27.558, 21.387,28.572, 22.467,30.00L18.00,30.00 L15.00,30.00 L10.533,30.00 C 11.613,28.572, 13.188,27.558, 15.00,27.183z" ></path></svg>