<?xml version="1.0" encoding="utf-8"?> <!-- Generator: IcoMoon.io --> <!DOCTYPE svg PUBLIC "-//W3C//DTD SVG 1.1//EN" "http://www.w3.org/Graphics/SVG/1.1/DTD/svg11.dtd"> <svg version="1.1" id="Layer_1" xmlns="http://www.w3.org/2000/svg" xmlns:xlink="http://www.w3.org/1999/xlink" x="0px" y="0px" width="48px" height="48px" viewBox="0 0 48 48" enable-background="new 0 0 16 16" xml:space="preserve" fill="#000000"> <path d="M 45.00,48.00L3.00,48.00 c0.00-5.427, 6.348-9.96, 15.00-11.442l0.00,-2.22 C 14.43,32.256, 12.00,28.431, 12.00,24.00L12.00,23.697 C 10.26,23.073, 9.00,21.453, 9.00,19.50c0.00-1.953, 1.26-3.573, 3.00-4.197L12.00,15.00 c0.00-6.627, 5.373-12.00, 12.00-12.00s 12.00,5.373, 12.00,12.00l0.00,0.303 c 1.74,0.624, 3.00,2.244, 3.00,4.197c0.00,1.953-1.26,3.573-3.00,4.197L36.00,24.00 c0.00,4.431-2.43,8.256-6.00,10.335l0.00,2.22 C 38.655,38.04, 45.00,42.573, 45.00,48.00z" ></path></svg>