<?xml version="1.0" encoding="utf-8"?> <!-- Generator: IcoMoon.io --> <!DOCTYPE svg PUBLIC "-//W3C//DTD SVG 1.1//EN" "http://www.w3.org/Graphics/SVG/1.1/DTD/svg11.dtd"> <svg version="1.1" id="Layer_1" xmlns="http://www.w3.org/2000/svg" xmlns:xlink="http://www.w3.org/1999/xlink" x="0px" y="0px" width="48px" height="48px" viewBox="0 0 48 48" enable-background="new 0 0 16 16" xml:space="preserve" fill="#000000"> <path d="M 38.667,26.268 C 43.371,28.875 47.073,33.498 48.00,39.00 C 48.00,43.968 43.968,48.00 39.00,48.00 L 34.854,48.00 C 36.642,46.437 37.956,44.37 38.574,42.00 L 39.00,42.00 C 40.659,42.00 42.00,40.659 42.00,39.00 C 41.226,36.012 39.183,33.504 36.534,31.89 C 35.136,29.466 33.252,27.282 30.963,25.515 C 31.311,24.924 31.611,24.306 31.872,23.673 C 34.263,22.881 36.00,20.655 36.00,18.00 L 36.00,12.00 C 36.00,9.342 34.263,7.116 31.869,6.327 C 30.891,3.948 29.289,1.914 27.306,0.33 C 28.176,0.129 29.07,0.00 30.00,0.00 C 36.627,0.00 42.00,5.373 42.00,12.00 L 42.00,18.00 C 42.00,21.213 40.719,24.114 38.667,26.268 ZM 27.00,48.00L9.00,48.00 c-4.971,0.00-9.00-4.032-9.00-9.00l0.00,0.00 c 0.927-5.502, 4.629-10.125, 9.336-12.732C 7.281,24.114, 6.00,21.213, 6.00,18.00L6.00,12.00 c0.00-6.627, 5.373-12.00, 12.00-12.00s 12.00,5.373, 12.00,12.00l0.00,6.00 c0.00,3.213-1.281,6.114-3.333,8.268C 31.371,28.875, 35.073,33.498, 36.00,39.00l0.00,0.00C 36.00,43.968, 31.968,48.00, 27.00,48.00z M 24.00,18.00L24.00,12.00 c0.00-3.312-2.688-6.00-6.00-6.00 S 12.00,8.688, 12.00,12.00l0.00,6.00 c0.00,3.312, 2.688,6.00, 6.00,6.00S 24.00,21.312, 24.00,18.00z M 30.00,39.00c-1.338-5.169-6.417-9.00-12.00-9.00l0.00,0.00l0.00,0.00c-5.586,0.00-10.662,3.831-12.00,9.00l0.00,0.00 c0.00,1.659, 1.344,3.00, 3.00,3.00l18.00,0.00 C 28.659,42.00, 30.00,40.659, 30.00,39.00L 30.00,39.00z" ></path></svg>