<?xml version="1.0" encoding="utf-8"?> <!-- Generator: IcoMoon.io --> <!DOCTYPE svg PUBLIC "-//W3C//DTD SVG 1.1//EN" "http://www.w3.org/Graphics/SVG/1.1/DTD/svg11.dtd"> <svg version="1.1" id="Layer_1" xmlns="http://www.w3.org/2000/svg" xmlns:xlink="http://www.w3.org/1999/xlink" x="0px" y="0px" width="48px" height="48px" viewBox="0 0 48 48" enable-background="new 0 0 16 16" xml:space="preserve" fill="#000000"> <path d="M0.00,39.00L0.00,9.00 c0.00-4.971, 4.029-9.00, 9.00-9.00l24.00,0.00 c 4.968,0.00, 9.00,4.029, 9.00,9.00l0.00,6.00 l3.00,0.00 c 1.659,0.00, 3.00,1.341, 3.00,3.00l0.00,12.00 c0.00,1.659-1.341,3.00-3.00,3.00l-3.00,0.00 l0.00,6.00 c0.00,4.971-4.032,9.00-9.00,9.00L9.00,48.00 C 4.029,48.00,0.00,43.971,0.00,39.00z M 45.00,30.00L45.00,18.00 L27.00,18.00 l0.00,12.00 L45.00,30.00 z M 33.00,42.00 c 1.659,0.00, 3.00-1.341, 3.00-3.00l0.00,-6.00 l-3.00,0.00 l0.00,3.00 l-3.00,0.00 l0.00,-3.00 L27.00,33.00 c-1.656,0.00-3.00-1.341-3.00-3.00L24.00,18.00 c0.00-1.659, 1.344-3.00, 3.00-3.00l3.00,0.00 l3.00,0.00 l3.00,0.00 L36.00,9.00 c0.00-1.656-1.341-3.00-3.00-3.00L9.00,6.00 C 7.344,6.00, 6.00,7.344, 6.00,9.00l0.00,30.00 c0.00,1.659, 1.344,3.00, 3.00,3.00L33.00,42.00 z M 9.00,36.00l3.00,0.00 l0.00,3.00 C 10.344,39.00, 9.00,37.659, 9.00,36.00z M 18.00,36.00l0.00,3.00 L15.00,39.00 l0.00,-3.00 L18.00,36.00 z M 24.00,36.00l0.00,3.00 L21.00,39.00 l0.00,-3.00 L24.00,36.00 z M 12.00,30.00l0.00,3.00 L9.00,33.00 l0.00,-3.00 L12.00,30.00 z M 12.00,24.00l0.00,3.00 L9.00,27.00 L9.00,24.00 L12.00,24.00 z M 12.00,18.00l0.00,3.00 L9.00,21.00 L9.00,18.00 L12.00,18.00 z M 12.00,12.00l0.00,3.00 L9.00,15.00 L9.00,12.00 L12.00,12.00 z M 15.00,9.00l0.00,3.00 L12.00,12.00 L12.00,9.00 L15.00,9.00 z M 21.00,9.00l0.00,3.00 L18.00,12.00 L18.00,9.00 L21.00,9.00 z M 27.00,9.00l0.00,3.00 L24.00,12.00 L24.00,9.00 L27.00,9.00 z M 33.00,12.00l-3.00,0.00 L30.00,9.00 C 31.659,9.00, 33.00,10.344, 33.00,12.00z M 27.00,39.00l0.00,-3.00 l3.00,0.00 l0.00,3.00 L27.00,39.00 z M 36.00,24.00c0.00,1.659-1.341,3.00-3.00,3.00s-3.00-1.341-3.00-3.00s 1.341-3.00, 3.00-3.00S 36.00,22.341, 36.00,24.00z" ></path></svg>