<?xml version="1.0" encoding="utf-8"?> <!-- Generator: IcoMoon.io --> <!DOCTYPE svg PUBLIC "-//W3C//DTD SVG 1.1//EN" "http://www.w3.org/Graphics/SVG/1.1/DTD/svg11.dtd"> <svg version="1.1" id="Layer_1" xmlns="http://www.w3.org/2000/svg" xmlns:xlink="http://www.w3.org/1999/xlink" x="0px" y="0px" width="48px" height="48px" viewBox="0 0 48 48" enable-background="new 0 0 16 16" xml:space="preserve" fill="#000000"> <path d="M 45.00,15.00l-3.00,0.00 l0.00,3.00 c0.00,1.659-1.341,3.00-3.00,3.00s-3.00-1.341-3.00-3.00L36.00,15.00 l-3.00,0.00 c-1.659,0.00-3.00-1.341-3.00-3.00 s 1.341-3.00, 3.00-3.00l3.00,0.00 L36.00,6.00 c0.00-1.659, 1.341-3.00, 3.00-3.00s 3.00,1.341, 3.00,3.00l0.00,3.00 l3.00,0.00 c 1.659,0.00, 3.00,1.341, 3.00,3.00S 46.659,15.00, 45.00,15.00z M 24.00,33.00c-3.312,0.00-6.00-2.688-6.00-6.00 c0.00-0.102, 0.024-0.195, 0.03-0.297C 18.495,26.865, 18.978,27.00, 19.50,27.00C 21.984,27.00, 24.00,24.984, 24.00,22.50c0.00-0.522-0.135-1.005-0.297-1.47 C 23.805,21.024, 23.898,21.00, 24.00,21.00c 3.312,0.00, 6.00,2.688, 6.00,6.00S 27.312,33.00, 24.00,33.00z M 24.00,15.00C 17.373,15.00, 12.00,20.373, 12.00,27.00s 5.373,12.00, 12.00,12.00s 12.00-5.373, 12.00-12.00 c0.00-0.186-0.048-0.363-0.057-0.552C 36.897,26.799, 37.923,27.00, 39.00,27.00c 3.012,0.00, 5.649-1.497, 7.272-3.774C 47.46,25.425, 48.00,27.00, 48.00,27.00s-6.00,18.00-24.00,18.00 S0.00,27.00,0.00,27.00s 6.00-18.00, 24.00-18.00c 0.18,0.00, 0.336,0.03, 0.513,0.033C 24.186,9.96, 24.00,10.956, 24.00,12.00c0.00,1.077, 0.201,2.103, 0.552,3.057C 24.363,15.048, 24.186,15.00, 24.00,15.00z" ></path></svg>