<?xml version="1.0" encoding="utf-8"?> <!-- Generator: IcoMoon.io --> <!DOCTYPE svg PUBLIC "-//W3C//DTD SVG 1.1//EN" "http://www.w3.org/Graphics/SVG/1.1/DTD/svg11.dtd"> <svg version="1.1" id="Layer_1" xmlns="http://www.w3.org/2000/svg" xmlns:xlink="http://www.w3.org/1999/xlink" x="0px" y="0px" width="48px" height="48px" viewBox="0 0 48 48" enable-background="new 0 0 16 16" xml:space="preserve" fill="#000000"> <path d="M 24.00,42.00c-18.00,0.00-24.00-18.00-24.00-18.00s 6.00-18.00, 24.00-18.00s 24.00,18.00, 24.00,18.00S 42.00,42.00, 24.00,42.00z M 24.00,12.00C 17.373,12.00, 12.00,17.373, 12.00,24.00 s 5.373,12.00, 12.00,12.00s 12.00-5.373, 12.00-12.00S 30.627,12.00, 24.00,12.00z M 24.00,30.00c-3.312,0.00-6.00-2.688-6.00-6.00c0.00-0.102, 0.024-0.195, 0.03-0.297C 18.495,23.865, 18.978,24.00, 19.50,24.00 C 21.984,24.00, 24.00,21.984, 24.00,19.50c0.00-0.522-0.135-1.005-0.297-1.47C 23.805,18.024, 23.898,18.00, 24.00,18.00c 3.312,0.00, 6.00,2.688, 6.00,6.00S 27.312,30.00, 24.00,30.00z" ></path></svg>