<?xml version="1.0" encoding="utf-8"?> <!-- Generator: IcoMoon.io --> <!DOCTYPE svg PUBLIC "-//W3C//DTD SVG 1.1//EN" "http://www.w3.org/Graphics/SVG/1.1/DTD/svg11.dtd"> <svg version="1.1" id="Layer_1" xmlns="http://www.w3.org/2000/svg" xmlns:xlink="http://www.w3.org/1999/xlink" x="0px" y="0px" width="48px" height="48px" viewBox="0 0 48 48" enable-background="new 0 0 16 16" xml:space="preserve" fill="#000000"> <path d="M 42.00,45.00c-1.659,0.00-3.00-1.341-3.00-3.00L39.00,15.00 c0.00-3.312-2.688-6.00-6.00-6.00S 27.00,11.688, 27.00,15.00l0.00,18.00 c0.00,6.627-5.373,12.00-12.00,12.00s-12.00-5.373-12.00-12.00L3.00,6.00 c0.00-1.656, 1.341-3.00, 3.00-3.00s 3.00,1.344, 3.00,3.00l0.00,27.00 c0.00,3.312, 2.688,6.00, 6.00,6.00s 6.00-2.688, 6.00-6.00L21.00,15.00 c0.00-6.627, 5.373-12.00, 12.00-12.00 s 12.00,5.373, 12.00,12.00l0.00,27.00 C 45.00,43.659, 43.659,45.00, 42.00,45.00z" ></path></svg>