<?xml version="1.0" encoding="UTF-8" standalone="no"?>
<!-- Created with Inkscape (http://www.inkscape.org/) -->

<svg
   xmlns:dc="http://purl.org/dc/elements/1.1/"
   xmlns:cc="http://creativecommons.org/ns#"
   xmlns:rdf="http://www.w3.org/1999/02/22-rdf-syntax-ns#"
   xmlns:svg="http://www.w3.org/2000/svg"
   xmlns="http://www.w3.org/2000/svg"
   xmlns:sodipodi="http://sodipodi.sourceforge.net/DTD/sodipodi-0.dtd"
   xmlns:inkscape="http://www.inkscape.org/namespaces/inkscape"
   version="1.1"
   width="139.71001"
   height="139.71001"
   id="svg2"
   inkscape:version="0.48.4 r9939"
   sodipodi:docname="icon.svg">
  <sodipodi:namedview
     pagecolor="#ffffff"
     bordercolor="#666666"
     borderopacity="1"
     objecttolerance="10"
     gridtolerance="10"
     guidetolerance="10"
     inkscape:pageopacity="0"
     inkscape:pageshadow="2"
     inkscape:window-width="1276"
     inkscape:window-height="1554"
     id="namedview3918"
     showgrid="false"
     inkscape:zoom="1.6892133"
     inkscape:cx="69.855003"
     inkscape:cy="69.855003"
     inkscape:window-x="1280"
     inkscape:window-y="0"
     inkscape:window-maximized="0"
     inkscape:current-layer="svg2" />
  <defs
     id="defs4" />
  <metadata
     id="metadata7">
    <rdf:RDF>
      <cc:Work
         rdf:about="">
        <dc:format>image/svg+xml</dc:format>
        <dc:type
           rdf:resource="http://purl.org/dc/dcmitype/StillImage" />
        <dc:title />
      </cc:Work>
    </rdf:RDF>
  </metadata>
  <g
     transform="translate(-407.85543,-579.65254)"
     id="layer1"
     style="fill:#d9d13e;fill-opacity:1">
    <path
       d="m 512.57243,654.07553 v -45.714 h -32 v 81.214 q 8.5,-4.5 15.214,-9.786 16.786,-13.143 16.786,-25.714 z m 13.715,-54.857 v 54.857 q 0,6.143 -2.393,12.179 -2.393,6.036 -5.929,10.714 -3.536,4.678 -8.429,9.107 -4.893,4.429 -9.036,7.357 -4.143,2.928 -8.643,5.536 -4.5,2.608 -6.393,3.536 -1.893,0.928 -3.036,1.429 -0.857,0.429 -1.857,0.429 -1,0 -1.857,-0.429 -1.143,-0.5 -3.036,-1.429 -1.893,-0.929 -6.393,-3.536 -4.5,-2.607 -8.643,-5.536 -4.143,-2.929 -9.036,-7.357 -4.893,-4.428 -8.429,-9.107 -3.536,-4.679 -5.929,-10.714 -2.393,-6.035 -2.393,-12.179 v -54.857 q 0,-1.857 1.357,-3.214 1.357,-1.357 3.214,-1.357 h 82.286 q 1.857,0 3.214,1.357 1.357,1.357 1.357,3.214 z"
       id="path3020"
       style="fill:#d9d13e;fill-opacity:1" />
  </g>
</svg>
