<?xml version="1.0" encoding="UTF-8" standalone="no"?>
<!-- Created with Inkscape (http://www.inkscape.org/) -->

<svg
   xmlns:dc="http://purl.org/dc/elements/1.1/"
   xmlns:cc="http://creativecommons.org/ns#"
   xmlns:rdf="http://www.w3.org/1999/02/22-rdf-syntax-ns#"
   xmlns:svg="http://www.w3.org/2000/svg"
   xmlns="http://www.w3.org/2000/svg"
   version="1.1"
   width="148.86"
   height="148.86"
   id="svg2">
  <defs
     id="defs4" />
  <metadata
     id="metadata7">
    <rdf:RDF>
      <cc:Work
         rdf:about="">
        <dc:format>image/svg+xml</dc:format>
        <dc:type
           rdf:resource="http://purl.org/dc/dcmitype/StillImage" />
        <dc:title></dc:title>
      </cc:Work>
    </rdf:RDF>
  </metadata>
  <g
     transform="translate(-128.71486,-347.35868)"
     id="layer1">
    <path
       d="m 216.85586,419.79168 q 0,-1.857 -1.357,-3.214 -1.357,-1.357 -3.214,-1.357 h -18.286 q -1.857,0 -3.214,1.357 -1.357,1.357 -1.357,3.214 0,1.857 1.357,3.214 1.357,1.357 3.214,1.357 h 18.286 q 1.857,0 3.214,-1.357 1.357,-1.357 1.357,-3.214 z m 41.143,-13.715 v 68.571 q 0,1.857 -1.357,3.214 -1.357,1.357 -3.214,1.357 h -100.571 q -1.857,0 -3.214,-1.357 -1.357,-1.357 -1.357,-3.214 v -68.571 q 0,-1.857 1.357,-3.214 1.357,-1.357 3.214,-1.357 h 100.571 q 1.857,0 3.214,1.357 1.357,1.357 1.357,3.214 z m 4.572,-32 v 18.286 q 0,1.857 -1.357,3.214 -1.357,1.357 -3.214,1.357 h -109.714 q -1.857,0 -3.214,-1.357 -1.357,-1.357 -1.357,-3.214 v -18.286 q 0,-1.857 1.357,-3.214 1.357,-1.357 3.214,-1.357 h 109.714 q 1.857,0 3.214,1.357 1.357,1.357 1.357,3.214 z"
       id="path2987"
       style="fill:#ac8c5e;fill-opacity:1" />
    <path
       d="m 221.71372,695.21961 v -4.571 q 0,-1 -0.643,-1.643 -0.643,-0.643 -1.643,-0.643 h -50.286 q -1,0 -1.643,0.643 -0.643,0.643 -0.643,1.643 v 4.571 q 0,1 0.643,1.643 0.643,0.643 1.643,0.643 h 50.286 q 1,0 1.643,-0.643 0.643,-0.643 0.643,-1.643 z m 0,-18.286 v -4.571 q 0,-1 -0.643,-1.643 -0.643,-0.643 -1.643,-0.643 h -50.286 q -1,0 -1.643,0.643 -0.643,0.643 -0.643,1.643 v 4.571 q 0,1 0.643,1.643 0.643,0.643 1.643,0.643 h 50.286 q 1,0 1.643,-0.643 0.643,-0.643 0.643,-1.643 z m 18.286,-25.143 v 57.143 q 0,2.857 -2,4.857 -2,2 -4.857,2 h -77.714 q -2.857,0 -4.857,-2 -2,-2 -2,-4.857 v -96 q 0,-2.857 2,-4.857 2,-2 4.857,-2 h 38.857 v 38.857 q 0,2.857 2,4.857 2,2 4.857,2 h 38.857 z m -0.215,-9.143 h -36.357 v -36.357 q 5.857,1.071 9.429,4.643 l 22.286,22.286 q 3.571,3.571 4.643,9.429 z"
       id="path3009"
       style="fill:#774171;fill-opacity:1" />
    <path
       d="m 500.57243,654.07553 v -45.714 h -32 v 81.214 q 8.5,-4.5 15.214,-9.786 16.786,-13.143 16.786,-25.714 z m 13.715,-54.857 v 54.857 q 0,6.143 -2.393,12.179 -2.393,6.036 -5.929,10.714 -3.536,4.678 -8.429,9.107 -4.893,4.429 -9.036,7.357 -4.143,2.928 -8.643,5.536 -4.5,2.608 -6.393,3.536 -1.893,0.928 -3.036,1.429 -0.857,0.429 -1.857,0.429 -1,0 -1.857,-0.429 -1.143,-0.5 -3.036,-1.429 -1.893,-0.929 -6.393,-3.536 -4.5,-2.607 -8.643,-5.536 -4.143,-2.929 -9.036,-7.357 -4.893,-4.428 -8.429,-9.107 -3.536,-4.679 -5.929,-10.714 -2.393,-6.035 -2.393,-12.179 v -54.857 q 0,-1.857 1.357,-3.214 1.357,-1.357 3.214,-1.357 h 82.286 q 1.857,0 3.214,1.357 1.357,1.357 1.357,3.214 z"
       id="path3020"
       style="fill:#96a55a;fill-opacity:1" />
    <path
       d="m 452.50038,337.50447 q 4,6.357 1.536,10.893 -2.464,4.536 -10.036,4.536 h -82.286 q -7.571,0 -10.036,-4.536 -2.465,-4.536 1.536,-10.893 l 35.929,-56.643 v -28.5 h -4.571 q -1.857,0 -3.214,-1.357 -1.357,-1.357 -1.357,-3.214 0,-1.857 1.357,-3.214 1.357,-1.357 3.214,-1.357 h 36.571 q 1.857,0 3.214,1.357 1.357,1.357 1.357,3.214 0,1.857 -1.357,3.214 -1.357,1.357 -3.214,1.357 h -4.571 v 28.5 z m -55.642,-51.786 -19.429,30.643 h 50.857 l -19.429,-30.643 -1.429,-2.214 v -31.143 h -9.143 v 31.143 z"
       id="path3799"
       style="fill:#415970;fill-opacity:1" />
  </g>
</svg>
